<?xml version="1.0" encoding="utf-8" standalone="no"?>
<!DOCTYPE svg PUBLIC "-//W3C//DTD SVG 1.1//EN"
  "http://www.w3.org/Graphics/SVG/1.1/DTD/svg11.dtd">
<svg xmlns:xlink="http://www.w3.org/1999/xlink" width="440.398266pt" height="188.39952pt" viewBox="0 0 440.398266 188.39952" xmlns="http://www.w3.org/2000/svg" version="1.1">
 <metadata>
  <rdf:RDF xmlns:dc="http://purl.org/dc/elements/1.1/" xmlns:cc="http://creativecommons.org/ns#" xmlns:rdf="http://www.w3.org/1999/02/22-rdf-syntax-ns#">
   <cc:Work>
    <dc:type rdf:resource="http://purl.org/dc/dcmitype/StillImage"/>
    <dc:date>2024-05-14T11:08:48.672611</dc:date>
    <dc:format>image/svg+xml</dc:format>
    <dc:creator>
     <cc:Agent>
      <dc:title>Matplotlib v3.6.0, https://matplotlib.org/</dc:title>
     </cc:Agent>
    </dc:creator>
   </cc:Work>
  </rdf:RDF>
 </metadata>
 <defs>
  <style type="text/css">*{stroke-linejoin: round; stroke-linecap: butt}</style>
 </defs>
 <g id="figure_1">
  <g id="patch_1">
   <path d="M 0 188.39952 
L 440.398266 188.39952 
L 440.398266 0 
L 0 0 
z
" style="fill: #ffffff"/>
  </g>
  <g id="axes_1">
   <g id="patch_2">
    <path d="M 45.478125 150.84327 
L 198.302743 150.84327 
L 198.302743 22.318125 
L 45.478125 22.318125 
z
" style="fill: #ffffff"/>
   </g>
   <g id="matplotlib.axis_1">
    <g id="xtick_1">
     <g id="line2d_1">
      <path d="M 52.424699 150.84327 
L 52.424699 22.318125 
" clip-path="url(#p5aef097b39)" style="fill: none; stroke: #b0b0b0; stroke-width: 0.8; stroke-linecap: square"/>
     </g>
     <g id="line2d_2">
      <defs>
       <path id="m76db718421" d="M 0 0 
L 0 3.5 
" style="stroke: #000000; stroke-width: 0.8"/>
      </defs>
      <g>
       <use xlink:href="#m76db718421" x="52.424699" y="150.84327" style="stroke: #000000; stroke-width: 0.8"/>
      </g>
     </g>
     <g id="text_1">
      <!-- 0 -->
      <g transform="translate(49.243449 165.441708) scale(0.1 -0.1)">
       <defs>
        <path id="DejaVuSans-30" d="M 2034 4250 
Q 1547 4250 1301 3770 
Q 1056 3291 1056 2328 
Q 1056 1369 1301 889 
Q 1547 409 2034 409 
Q 2525 409 2770 889 
Q 3016 1369 3016 2328 
Q 3016 3291 2770 3770 
Q 2525 4250 2034 4250 
z
M 2034 4750 
Q 2819 4750 3233 4129 
Q 3647 3509 3647 2328 
Q 3647 1150 3233 529 
Q 2819 -91 2034 -91 
Q 1250 -91 836 529 
Q 422 1150 422 2328 
Q 422 3509 836 4129 
Q 1250 4750 2034 4750 
z
" transform="scale(0.015625)"/>
       </defs>
       <use xlink:href="#DejaVuSans-30"/>
      </g>
     </g>
    </g>
    <g id="xtick_2">
     <g id="line2d_3">
      <path d="M 87.192334 150.84327 
L 87.192334 22.318125 
" clip-path="url(#p5aef097b39)" style="fill: none; stroke: #b0b0b0; stroke-width: 0.8; stroke-linecap: square"/>
     </g>
     <g id="line2d_4">
      <g>
       <use xlink:href="#m76db718421" x="87.192334" y="150.84327" style="stroke: #000000; stroke-width: 0.8"/>
      </g>
     </g>
     <g id="text_2">
      <!-- 250 -->
      <g transform="translate(77.648584 165.441708) scale(0.1 -0.1)">
       <defs>
        <path id="DejaVuSans-32" d="M 1228 531 
L 3431 531 
L 3431 0 
L 469 0 
L 469 531 
Q 828 903 1448 1529 
Q 2069 2156 2228 2338 
Q 2531 2678 2651 2914 
Q 2772 3150 2772 3378 
Q 2772 3750 2511 3984 
Q 2250 4219 1831 4219 
Q 1534 4219 1204 4116 
Q 875 4013 500 3803 
L 500 4441 
Q 881 4594 1212 4672 
Q 1544 4750 1819 4750 
Q 2544 4750 2975 4387 
Q 3406 4025 3406 3419 
Q 3406 3131 3298 2873 
Q 3191 2616 2906 2266 
Q 2828 2175 2409 1742 
Q 1991 1309 1228 531 
z
" transform="scale(0.015625)"/>
        <path id="DejaVuSans-35" d="M 691 4666 
L 3169 4666 
L 3169 4134 
L 1269 4134 
L 1269 2991 
Q 1406 3038 1543 3061 
Q 1681 3084 1819 3084 
Q 2600 3084 3056 2656 
Q 3513 2228 3513 1497 
Q 3513 744 3044 326 
Q 2575 -91 1722 -91 
Q 1428 -91 1123 -41 
Q 819 9 494 109 
L 494 744 
Q 775 591 1075 516 
Q 1375 441 1709 441 
Q 2250 441 2565 725 
Q 2881 1009 2881 1497 
Q 2881 1984 2565 2268 
Q 2250 2553 1709 2553 
Q 1456 2553 1204 2497 
Q 953 2441 691 2322 
L 691 4666 
z
" transform="scale(0.015625)"/>
       </defs>
       <use xlink:href="#DejaVuSans-32"/>
       <use xlink:href="#DejaVuSans-35" x="63.623047"/>
       <use xlink:href="#DejaVuSans-30" x="127.246094"/>
      </g>
     </g>
    </g>
    <g id="xtick_3">
     <g id="line2d_5">
      <path d="M 121.959969 150.84327 
L 121.959969 22.318125 
" clip-path="url(#p5aef097b39)" style="fill: none; stroke: #b0b0b0; stroke-width: 0.8; stroke-linecap: square"/>
     </g>
     <g id="line2d_6">
      <g>
       <use xlink:href="#m76db718421" x="121.959969" y="150.84327" style="stroke: #000000; stroke-width: 0.8"/>
      </g>
     </g>
     <g id="text_3">
      <!-- 500 -->
      <g transform="translate(112.416219 165.441708) scale(0.1 -0.1)">
       <use xlink:href="#DejaVuSans-35"/>
       <use xlink:href="#DejaVuSans-30" x="63.623047"/>
       <use xlink:href="#DejaVuSans-30" x="127.246094"/>
      </g>
     </g>
    </g>
    <g id="xtick_4">
     <g id="line2d_7">
      <path d="M 156.727605 150.84327 
L 156.727605 22.318125 
" clip-path="url(#p5aef097b39)" style="fill: none; stroke: #b0b0b0; stroke-width: 0.8; stroke-linecap: square"/>
     </g>
     <g id="line2d_8">
      <g>
       <use xlink:href="#m76db718421" x="156.727605" y="150.84327" style="stroke: #000000; stroke-width: 0.8"/>
      </g>
     </g>
     <g id="text_4">
      <!-- 750 -->
      <g transform="translate(147.183855 165.441708) scale(0.1 -0.1)">
       <defs>
        <path id="DejaVuSans-37" d="M 525 4666 
L 3525 4666 
L 3525 4397 
L 1831 0 
L 1172 0 
L 2766 4134 
L 525 4134 
L 525 4666 
z
" transform="scale(0.015625)"/>
       </defs>
       <use xlink:href="#DejaVuSans-37"/>
       <use xlink:href="#DejaVuSans-35" x="63.623047"/>
       <use xlink:href="#DejaVuSans-30" x="127.246094"/>
      </g>
     </g>
    </g>
    <g id="xtick_5">
     <g id="line2d_9">
      <path d="M 191.49524 150.84327 
L 191.49524 22.318125 
" clip-path="url(#p5aef097b39)" style="fill: none; stroke: #b0b0b0; stroke-width: 0.8; stroke-linecap: square"/>
     </g>
     <g id="line2d_10">
      <g>
       <use xlink:href="#m76db718421" x="191.49524" y="150.84327" style="stroke: #000000; stroke-width: 0.8"/>
      </g>
     </g>
     <g id="text_5">
      <!-- 1000 -->
      <g transform="translate(178.77024 165.441708) scale(0.1 -0.1)">
       <defs>
        <path id="DejaVuSans-31" d="M 794 531 
L 1825 531 
L 1825 4091 
L 703 3866 
L 703 4441 
L 1819 4666 
L 2450 4666 
L 2450 531 
L 3481 531 
L 3481 0 
L 794 0 
L 794 531 
z
" transform="scale(0.015625)"/>
       </defs>
       <use xlink:href="#DejaVuSans-31"/>
       <use xlink:href="#DejaVuSans-30" x="63.623047"/>
       <use xlink:href="#DejaVuSans-30" x="127.246094"/>
       <use xlink:href="#DejaVuSans-30" x="190.869141"/>
      </g>
     </g>
    </g>
    <g id="text_6">
     <!-- Epochs -->
     <g transform="translate(103.974809 179.119833) scale(0.1 -0.1)">
      <defs>
       <path id="DejaVuSans-45" d="M 628 4666 
L 3578 4666 
L 3578 4134 
L 1259 4134 
L 1259 2753 
L 3481 2753 
L 3481 2222 
L 1259 2222 
L 1259 531 
L 3634 531 
L 3634 0 
L 628 0 
L 628 4666 
z
" transform="scale(0.015625)"/>
       <path id="DejaVuSans-70" d="M 1159 525 
L 1159 -1331 
L 581 -1331 
L 581 3500 
L 1159 3500 
L 1159 2969 
Q 1341 3281 1617 3432 
Q 1894 3584 2278 3584 
Q 2916 3584 3314 3078 
Q 3713 2572 3713 1747 
Q 3713 922 3314 415 
Q 2916 -91 2278 -91 
Q 1894 -91 1617 61 
Q 1341 213 1159 525 
z
M 3116 1747 
Q 3116 2381 2855 2742 
Q 2594 3103 2138 3103 
Q 1681 3103 1420 2742 
Q 1159 2381 1159 1747 
Q 1159 1113 1420 752 
Q 1681 391 2138 391 
Q 2594 391 2855 752 
Q 3116 1113 3116 1747 
z
" transform="scale(0.015625)"/>
       <path id="DejaVuSans-6f" d="M 1959 3097 
Q 1497 3097 1228 2736 
Q 959 2375 959 1747 
Q 959 1119 1226 758 
Q 1494 397 1959 397 
Q 2419 397 2687 759 
Q 2956 1122 2956 1747 
Q 2956 2369 2687 2733 
Q 2419 3097 1959 3097 
z
M 1959 3584 
Q 2709 3584 3137 3096 
Q 3566 2609 3566 1747 
Q 3566 888 3137 398 
Q 2709 -91 1959 -91 
Q 1206 -91 779 398 
Q 353 888 353 1747 
Q 353 2609 779 3096 
Q 1206 3584 1959 3584 
z
" transform="scale(0.015625)"/>
       <path id="DejaVuSans-63" d="M 3122 3366 
L 3122 2828 
Q 2878 2963 2633 3030 
Q 2388 3097 2138 3097 
Q 1578 3097 1268 2742 
Q 959 2388 959 1747 
Q 959 1106 1268 751 
Q 1578 397 2138 397 
Q 2388 397 2633 464 
Q 2878 531 3122 666 
L 3122 134 
Q 2881 22 2623 -34 
Q 2366 -91 2075 -91 
Q 1284 -91 818 406 
Q 353 903 353 1747 
Q 353 2603 823 3093 
Q 1294 3584 2113 3584 
Q 2378 3584 2631 3529 
Q 2884 3475 3122 3366 
z
" transform="scale(0.015625)"/>
       <path id="DejaVuSans-68" d="M 3513 2113 
L 3513 0 
L 2938 0 
L 2938 2094 
Q 2938 2591 2744 2837 
Q 2550 3084 2163 3084 
Q 1697 3084 1428 2787 
Q 1159 2491 1159 1978 
L 1159 0 
L 581 0 
L 581 4863 
L 1159 4863 
L 1159 2956 
Q 1366 3272 1645 3428 
Q 1925 3584 2291 3584 
Q 2894 3584 3203 3211 
Q 3513 2838 3513 2113 
z
" transform="scale(0.015625)"/>
       <path id="DejaVuSans-73" d="M 2834 3397 
L 2834 2853 
Q 2591 2978 2328 3040 
Q 2066 3103 1784 3103 
Q 1356 3103 1142 2972 
Q 928 2841 928 2578 
Q 928 2378 1081 2264 
Q 1234 2150 1697 2047 
L 1894 2003 
Q 2506 1872 2764 1633 
Q 3022 1394 3022 966 
Q 3022 478 2636 193 
Q 2250 -91 1575 -91 
Q 1294 -91 989 -36 
Q 684 19 347 128 
L 347 722 
Q 666 556 975 473 
Q 1284 391 1588 391 
Q 1994 391 2212 530 
Q 2431 669 2431 922 
Q 2431 1156 2273 1281 
Q 2116 1406 1581 1522 
L 1381 1569 
Q 847 1681 609 1914 
Q 372 2147 372 2553 
Q 372 3047 722 3315 
Q 1072 3584 1716 3584 
Q 2034 3584 2315 3537 
Q 2597 3491 2834 3397 
z
" transform="scale(0.015625)"/>
      </defs>
      <use xlink:href="#DejaVuSans-45"/>
      <use xlink:href="#DejaVuSans-70" x="63.183594"/>
      <use xlink:href="#DejaVuSans-6f" x="126.660156"/>
      <use xlink:href="#DejaVuSans-63" x="187.841797"/>
      <use xlink:href="#DejaVuSans-68" x="242.822266"/>
      <use xlink:href="#DejaVuSans-73" x="306.201172"/>
     </g>
    </g>
   </g>
   <g id="matplotlib.axis_2">
    <g id="ytick_1">
     <g id="line2d_11">
      <path d="M 45.478125 75.998804 
L 198.302743 75.998804 
" clip-path="url(#p5aef097b39)" style="fill: none; stroke: #b0b0b0; stroke-width: 0.8; stroke-linecap: square"/>
     </g>
     <g id="line2d_12">
      <defs>
       <path id="mdc2df44965" d="M 0 0 
L -3.5 0 
" style="stroke: #000000; stroke-width: 0.8"/>
      </defs>
      <g>
       <use xlink:href="#mdc2df44965" x="45.478125" y="75.998804" style="stroke: #000000; stroke-width: 0.8"/>
      </g>
     </g>
     <g id="text_7">
      <!-- $\mathdefault{10^{0}}$ -->
      <g transform="translate(20.878125 79.798023) scale(0.1 -0.1)">
       <use xlink:href="#DejaVuSans-31" transform="translate(0 0.765625)"/>
       <use xlink:href="#DejaVuSans-30" transform="translate(63.623047 0.765625)"/>
       <use xlink:href="#DejaVuSans-30" transform="translate(128.203125 39.046875) scale(0.7)"/>
      </g>
     </g>
    </g>
    <g id="ytick_2">
     <g id="line2d_13">
      <defs>
       <path id="m4644e27c13" d="M 0 0 
L -2 0 
" style="stroke: #000000; stroke-width: 0.6"/>
      </defs>
      <g>
       <use xlink:href="#m4644e27c13" x="45.478125" y="128.652186" style="stroke: #000000; stroke-width: 0.6"/>
      </g>
     </g>
    </g>
    <g id="ytick_3">
     <g id="line2d_14">
      <g>
       <use xlink:href="#m4644e27c13" x="45.478125" y="115.387238" style="stroke: #000000; stroke-width: 0.6"/>
      </g>
     </g>
    </g>
    <g id="ytick_4">
     <g id="line2d_15">
      <g>
       <use xlink:href="#m4644e27c13" x="45.478125" y="105.975608" style="stroke: #000000; stroke-width: 0.6"/>
      </g>
     </g>
    </g>
    <g id="ytick_5">
     <g id="line2d_16">
      <g>
       <use xlink:href="#m4644e27c13" x="45.478125" y="98.675381" style="stroke: #000000; stroke-width: 0.6"/>
      </g>
     </g>
    </g>
    <g id="ytick_6">
     <g id="line2d_17">
      <g>
       <use xlink:href="#m4644e27c13" x="45.478125" y="92.710661" style="stroke: #000000; stroke-width: 0.6"/>
      </g>
     </g>
    </g>
    <g id="ytick_7">
     <g id="line2d_18">
      <g>
       <use xlink:href="#m4644e27c13" x="45.478125" y="87.667562" style="stroke: #000000; stroke-width: 0.6"/>
      </g>
     </g>
    </g>
    <g id="ytick_8">
     <g id="line2d_19">
      <g>
       <use xlink:href="#m4644e27c13" x="45.478125" y="83.299031" style="stroke: #000000; stroke-width: 0.6"/>
      </g>
     </g>
    </g>
    <g id="ytick_9">
     <g id="line2d_20">
      <g>
       <use xlink:href="#m4644e27c13" x="45.478125" y="79.445714" style="stroke: #000000; stroke-width: 0.6"/>
      </g>
     </g>
    </g>
    <g id="ytick_10">
     <g id="line2d_21">
      <g>
       <use xlink:href="#m4644e27c13" x="45.478125" y="53.322227" style="stroke: #000000; stroke-width: 0.6"/>
      </g>
     </g>
    </g>
    <g id="ytick_11">
     <g id="line2d_22">
      <g>
       <use xlink:href="#m4644e27c13" x="45.478125" y="40.05728" style="stroke: #000000; stroke-width: 0.6"/>
      </g>
     </g>
    </g>
    <g id="ytick_12">
     <g id="line2d_23">
      <g>
       <use xlink:href="#m4644e27c13" x="45.478125" y="30.64565" style="stroke: #000000; stroke-width: 0.6"/>
      </g>
     </g>
    </g>
    <g id="ytick_13">
     <g id="line2d_24">
      <g>
       <use xlink:href="#m4644e27c13" x="45.478125" y="23.345422" style="stroke: #000000; stroke-width: 0.6"/>
      </g>
     </g>
    </g>
    <g id="text_8">
     <!-- Reconstruction error [MSE] -->
     <g transform="translate(14.798438 153.829135) rotate(-90) scale(0.1 -0.1)">
      <defs>
       <path id="DejaVuSans-52" d="M 2841 2188 
Q 3044 2119 3236 1894 
Q 3428 1669 3622 1275 
L 4263 0 
L 3584 0 
L 2988 1197 
Q 2756 1666 2539 1819 
Q 2322 1972 1947 1972 
L 1259 1972 
L 1259 0 
L 628 0 
L 628 4666 
L 2053 4666 
Q 2853 4666 3247 4331 
Q 3641 3997 3641 3322 
Q 3641 2881 3436 2590 
Q 3231 2300 2841 2188 
z
M 1259 4147 
L 1259 2491 
L 2053 2491 
Q 2509 2491 2742 2702 
Q 2975 2913 2975 3322 
Q 2975 3731 2742 3939 
Q 2509 4147 2053 4147 
L 1259 4147 
z
" transform="scale(0.015625)"/>
       <path id="DejaVuSans-65" d="M 3597 1894 
L 3597 1613 
L 953 1613 
Q 991 1019 1311 708 
Q 1631 397 2203 397 
Q 2534 397 2845 478 
Q 3156 559 3463 722 
L 3463 178 
Q 3153 47 2828 -22 
Q 2503 -91 2169 -91 
Q 1331 -91 842 396 
Q 353 884 353 1716 
Q 353 2575 817 3079 
Q 1281 3584 2069 3584 
Q 2775 3584 3186 3129 
Q 3597 2675 3597 1894 
z
M 3022 2063 
Q 3016 2534 2758 2815 
Q 2500 3097 2075 3097 
Q 1594 3097 1305 2825 
Q 1016 2553 972 2059 
L 3022 2063 
z
" transform="scale(0.015625)"/>
       <path id="DejaVuSans-6e" d="M 3513 2113 
L 3513 0 
L 2938 0 
L 2938 2094 
Q 2938 2591 2744 2837 
Q 2550 3084 2163 3084 
Q 1697 3084 1428 2787 
Q 1159 2491 1159 1978 
L 1159 0 
L 581 0 
L 581 3500 
L 1159 3500 
L 1159 2956 
Q 1366 3272 1645 3428 
Q 1925 3584 2291 3584 
Q 2894 3584 3203 3211 
Q 3513 2838 3513 2113 
z
" transform="scale(0.015625)"/>
       <path id="DejaVuSans-74" d="M 1172 4494 
L 1172 3500 
L 2356 3500 
L 2356 3053 
L 1172 3053 
L 1172 1153 
Q 1172 725 1289 603 
Q 1406 481 1766 481 
L 2356 481 
L 2356 0 
L 1766 0 
Q 1100 0 847 248 
Q 594 497 594 1153 
L 594 3053 
L 172 3053 
L 172 3500 
L 594 3500 
L 594 4494 
L 1172 4494 
z
" transform="scale(0.015625)"/>
       <path id="DejaVuSans-72" d="M 2631 2963 
Q 2534 3019 2420 3045 
Q 2306 3072 2169 3072 
Q 1681 3072 1420 2755 
Q 1159 2438 1159 1844 
L 1159 0 
L 581 0 
L 581 3500 
L 1159 3500 
L 1159 2956 
Q 1341 3275 1631 3429 
Q 1922 3584 2338 3584 
Q 2397 3584 2469 3576 
Q 2541 3569 2628 3553 
L 2631 2963 
z
" transform="scale(0.015625)"/>
       <path id="DejaVuSans-75" d="M 544 1381 
L 544 3500 
L 1119 3500 
L 1119 1403 
Q 1119 906 1312 657 
Q 1506 409 1894 409 
Q 2359 409 2629 706 
Q 2900 1003 2900 1516 
L 2900 3500 
L 3475 3500 
L 3475 0 
L 2900 0 
L 2900 538 
Q 2691 219 2414 64 
Q 2138 -91 1772 -91 
Q 1169 -91 856 284 
Q 544 659 544 1381 
z
M 1991 3584 
L 1991 3584 
z
" transform="scale(0.015625)"/>
       <path id="DejaVuSans-69" d="M 603 3500 
L 1178 3500 
L 1178 0 
L 603 0 
L 603 3500 
z
M 603 4863 
L 1178 4863 
L 1178 4134 
L 603 4134 
L 603 4863 
z
" transform="scale(0.015625)"/>
       <path id="DejaVuSans-20" transform="scale(0.015625)"/>
       <path id="DejaVuSans-5b" d="M 550 4863 
L 1875 4863 
L 1875 4416 
L 1125 4416 
L 1125 -397 
L 1875 -397 
L 1875 -844 
L 550 -844 
L 550 4863 
z
" transform="scale(0.015625)"/>
       <path id="DejaVuSans-4d" d="M 628 4666 
L 1569 4666 
L 2759 1491 
L 3956 4666 
L 4897 4666 
L 4897 0 
L 4281 0 
L 4281 4097 
L 3078 897 
L 2444 897 
L 1241 4097 
L 1241 0 
L 628 0 
L 628 4666 
z
" transform="scale(0.015625)"/>
       <path id="DejaVuSans-53" d="M 3425 4513 
L 3425 3897 
Q 3066 4069 2747 4153 
Q 2428 4238 2131 4238 
Q 1616 4238 1336 4038 
Q 1056 3838 1056 3469 
Q 1056 3159 1242 3001 
Q 1428 2844 1947 2747 
L 2328 2669 
Q 3034 2534 3370 2195 
Q 3706 1856 3706 1288 
Q 3706 609 3251 259 
Q 2797 -91 1919 -91 
Q 1588 -91 1214 -16 
Q 841 59 441 206 
L 441 856 
Q 825 641 1194 531 
Q 1563 422 1919 422 
Q 2459 422 2753 634 
Q 3047 847 3047 1241 
Q 3047 1584 2836 1778 
Q 2625 1972 2144 2069 
L 1759 2144 
Q 1053 2284 737 2584 
Q 422 2884 422 3419 
Q 422 4038 858 4394 
Q 1294 4750 2059 4750 
Q 2388 4750 2728 4690 
Q 3069 4631 3425 4513 
z
" transform="scale(0.015625)"/>
       <path id="DejaVuSans-5d" d="M 1947 4863 
L 1947 -844 
L 622 -844 
L 622 -397 
L 1369 -397 
L 1369 4416 
L 622 4416 
L 622 4863 
L 1947 4863 
z
" transform="scale(0.015625)"/>
      </defs>
      <use xlink:href="#DejaVuSans-52"/>
      <use xlink:href="#DejaVuSans-65" x="64.982422"/>
      <use xlink:href="#DejaVuSans-63" x="126.505859"/>
      <use xlink:href="#DejaVuSans-6f" x="181.486328"/>
      <use xlink:href="#DejaVuSans-6e" x="242.667969"/>
      <use xlink:href="#DejaVuSans-73" x="306.046875"/>
      <use xlink:href="#DejaVuSans-74" x="358.146484"/>
      <use xlink:href="#DejaVuSans-72" x="397.355469"/>
      <use xlink:href="#DejaVuSans-75" x="438.46875"/>
      <use xlink:href="#DejaVuSans-63" x="501.847656"/>
      <use xlink:href="#DejaVuSans-74" x="556.828125"/>
      <use xlink:href="#DejaVuSans-69" x="596.037109"/>
      <use xlink:href="#DejaVuSans-6f" x="623.820312"/>
      <use xlink:href="#DejaVuSans-6e" x="685.001953"/>
      <use xlink:href="#DejaVuSans-20" x="748.380859"/>
      <use xlink:href="#DejaVuSans-65" x="780.167969"/>
      <use xlink:href="#DejaVuSans-72" x="841.691406"/>
      <use xlink:href="#DejaVuSans-72" x="881.054688"/>
      <use xlink:href="#DejaVuSans-6f" x="919.917969"/>
      <use xlink:href="#DejaVuSans-72" x="981.099609"/>
      <use xlink:href="#DejaVuSans-20" x="1022.212891"/>
      <use xlink:href="#DejaVuSans-5b" x="1054"/>
      <use xlink:href="#DejaVuSans-4d" x="1093.013672"/>
      <use xlink:href="#DejaVuSans-53" x="1179.292969"/>
      <use xlink:href="#DejaVuSans-45" x="1242.769531"/>
      <use xlink:href="#DejaVuSans-5d" x="1305.953125"/>
     </g>
    </g>
   </g>
   <g id="line2d_25">
    <path d="M 52.424699 34.805364 
L 52.563769 30.651131 
L 52.70284 34.010774 
L 53.120051 34.917346 
L 53.676333 38.856328 
L 54.093545 43.422193 
L 54.788898 54.303556 
L 56.040533 75.461748 
L 56.596815 81.549267 
L 57.292167 86.552914 
L 57.84845 89.386931 
L 58.543802 91.936243 
L 58.821943 92.362004 
L 59.100085 91.544244 
L 59.378226 93.456439 
L 59.517296 93.110369 
L 59.656367 94.086938 
L 59.795437 94.055004 
L 59.934508 93.785523 
L 60.073578 95.050039 
L 60.212649 94.826408 
L 60.351719 94.903482 
L 60.49079 95.415743 
L 60.62986 95.294545 
L 60.908002 96.130184 
L 61.047072 96.171829 
L 61.186143 96.59365 
L 61.325213 96.624756 
L 62.437778 97.96165 
L 62.854989 97.392355 
L 63.13313 99.361699 
L 63.411271 98.640659 
L 63.689412 100.224242 
L 63.828483 99.773222 
L 64.106624 101.037958 
L 64.245695 100.855056 
L 64.384765 101.182598 
L 64.523836 101.852472 
L 64.662906 101.715614 
L 64.801977 101.930411 
L 64.941047 102.360785 
L 65.080118 102.413627 
L 65.358259 103.084966 
L 65.914541 104.426196 
L 66.053612 104.360293 
L 66.470823 104.996367 
L 66.888035 106.589184 
L 67.027105 106.548349 
L 67.166176 106.361284 
L 67.305246 106.567147 
L 67.722458 108.103099 
L 68.000599 108.136714 
L 68.13967 108.051572 
L 68.417811 108.544585 
L 68.695952 109.306628 
L 68.974093 108.942678 
L 69.391305 110.109207 
L 69.808516 109.49875 
L 70.225728 110.611523 
L 70.364798 110.110012 
L 70.503869 110.098726 
L 70.78201 111.586086 
L 70.921081 111.500966 
L 71.060151 111.273995 
L 71.199222 111.487235 
L 71.338292 112.279993 
L 71.477363 112.402664 
L 71.616433 112.136034 
L 71.894574 112.90915 
L 72.172715 112.447826 
L 72.450856 112.996904 
L 72.589927 112.613694 
L 73.007139 109.850296 
L 73.146209 110.962307 
L 73.42435 113.883585 
L 73.563421 112.210332 
L 73.702491 112.331682 
L 73.841562 114.384261 
L 74.119703 112.817767 
L 74.258774 114.57253 
L 74.536915 113.601885 
L 74.675985 115.032713 
L 74.815056 114.406338 
L 75.093197 115.214321 
L 75.232267 114.722346 
L 75.371338 115.409657 
L 75.510408 115.324676 
L 75.649479 115.426986 
L 75.788549 115.673463 
L 75.92762 115.329737 
L 76.205761 115.853464 
L 76.344832 115.687626 
L 76.483902 116.085644 
L 76.762043 114.573715 
L 77.179255 109.519407 
L 77.457396 115.926038 
L 77.596467 112.737627 
L 77.874608 116.149299 
L 78.013678 114.533675 
L 78.152749 116.367553 
L 78.291819 115.595962 
L 78.43089 115.709386 
L 78.56996 116.171744 
L 78.709031 115.790079 
L 78.848101 116.881963 
L 78.987172 115.81894 
L 79.265313 116.997144 
L 79.404384 116.477224 
L 79.543454 116.80554 
L 79.682525 116.821991 
L 79.821595 117.157265 
L 79.960666 116.650582 
L 80.238807 117.353444 
L 80.516948 117.204659 
L 80.795089 117.656006 
L 80.93416 117.449209 
L 81.07323 117.871814 
L 81.212301 117.820786 
L 81.351371 117.632516 
L 81.490442 117.701921 
L 81.768583 118.154849 
L 81.907653 118.138565 
L 82.185794 118.275633 
L 82.463935 118.309787 
L 82.742077 118.555324 
L 82.881147 118.5201 
L 83.437429 118.865578 
L 83.5765 118.889917 
L 83.71557 118.67357 
L 83.854641 118.773194 
L 84.132782 118.755412 
L 84.410923 118.87078 
L 84.689064 119.036603 
L 85.106276 119.068583 
L 85.245346 118.978018 
L 85.384417 118.584094 
L 85.523487 117.774337 
L 85.940699 113.691165 
L 86.21884 118.913919 
L 86.496981 117.600605 
L 86.775122 119.660309 
L 86.914193 118.653992 
L 87.053263 119.035469 
L 87.192334 119.860912 
L 87.331404 119.243439 
L 87.470475 119.825834 
L 87.609545 119.921799 
L 87.748616 119.467827 
L 87.887687 120.008303 
L 88.026757 120.045357 
L 88.165828 119.844789 
L 88.304898 120.156338 
L 88.583039 120.056792 
L 88.72211 120.181622 
L 89.000251 119.916114 
L 89.139321 120.025233 
L 89.417463 119.566967 
L 89.556533 119.364695 
L 89.695604 119.468 
L 90.112815 120.713324 
L 90.251886 120.747718 
L 90.390956 120.639032 
L 90.530027 120.158616 
L 90.808168 120.505112 
L 91.086309 120.955408 
L 91.22538 121.08379 
L 91.781662 120.772295 
L 92.059803 121.005238 
L 92.477014 121.574403 
L 92.616085 121.467664 
L 93.172367 120.333058 
L 93.450508 119.236028 
L 93.589579 118.902135 
L 94.00679 121.6594 
L 94.284931 119.779551 
L 94.424002 121.421989 
L 94.563073 121.620514 
L 94.841214 119.52366 
L 95.258425 117.44941 
L 95.536566 121.806615 
L 95.675637 121.52041 
L 95.814707 120.674146 
L 95.953778 120.881252 
L 96.092849 121.523427 
L 96.37099 121.674836 
L 96.51006 121.968779 
L 96.788201 121.821676 
L 97.205413 122.263852 
L 97.761695 122.257837 
L 97.900766 122.683658 
L 98.178907 122.528905 
L 98.735189 123.034224 
L 98.874259 122.895698 
L 99.291471 123.276375 
L 99.430542 122.967973 
L 99.847753 123.540705 
L 100.264965 123.319673 
L 100.543106 123.576141 
L 100.821247 122.993254 
L 101.099388 123.264479 
L 101.5166 123.704237 
L 101.794741 124.131783 
L 102.072882 124.132537 
L 102.211952 123.96155 
L 102.490093 122.779768 
L 102.768235 119.103251 
L 102.907305 115.715354 
L 103.046376 115.843807 
L 103.185446 118.013094 
L 103.324517 122.371726 
L 103.602658 119.150435 
L 103.741728 123.504346 
L 103.880799 122.947996 
L 104.019869 121.905686 
L 104.15894 123.930237 
L 104.29801 121.618833 
L 104.437081 122.265183 
L 104.576152 124.177743 
L 104.715222 122.096493 
L 104.854293 123.63382 
L 104.993363 122.496824 
L 105.271504 124.126848 
L 105.410575 122.988702 
L 105.549645 124.114367 
L 105.688716 123.147911 
L 105.827786 124.350612 
L 105.966857 124.005746 
L 106.105927 124.671752 
L 106.244998 124.370432 
L 106.523139 124.595068 
L 106.66221 124.719091 
L 106.80128 125.022118 
L 106.940351 124.761193 
L 107.079421 124.827848 
L 107.218492 124.443902 
L 107.357562 124.472962 
L 107.635703 125.035727 
L 107.774774 125.323699 
L 107.913845 124.978089 
L 108.191986 125.060186 
L 108.331056 125.476421 
L 108.609197 125.483387 
L 108.748268 125.74113 
L 108.887338 125.494374 
L 109.026409 125.521982 
L 109.165479 125.168691 
L 109.30455 125.317392 
L 109.44362 125.165507 
L 109.582691 125.35599 
L 109.721762 125.842409 
L 109.860832 125.88778 
L 109.999903 126.092513 
L 110.278044 125.366823 
L 110.417114 125.530644 
L 110.695255 125.409501 
L 110.834326 125.744076 
L 110.973396 125.657182 
L 111.251538 126.353103 
L 111.390608 126.296904 
L 111.529679 126.411336 
L 111.668749 126.136167 
L 112.085961 124.810257 
L 112.225031 124.414246 
L 112.364102 124.811952 
L 112.781313 126.803589 
L 113.198525 126.212461 
L 113.615737 126.98075 
L 113.893878 125.63843 
L 114.032948 125.776961 
L 114.172019 126.695424 
L 114.311089 126.606187 
L 114.589231 125.410225 
L 114.867372 127.287779 
L 115.006442 127.121029 
L 115.145513 126.702163 
L 115.701795 127.602945 
L 115.979936 126.87038 
L 116.119006 127.078797 
L 116.397148 127.879876 
L 116.814359 127.050923 
L 116.95343 127.250464 
L 117.231571 126.790664 
L 117.370641 126.859148 
L 117.648782 127.912199 
L 117.787853 127.646345 
L 118.065994 125.665971 
L 118.205065 125.653692 
L 118.622276 128.52426 
L 118.900417 127.759954 
L 119.317629 128.706716 
L 119.59577 128.419223 
L 120.012982 128.887717 
L 120.430193 128.717932 
L 120.569264 128.698645 
L 120.847405 127.468249 
L 121.403687 123.987676 
L 121.820899 128.858608 
L 122.09904 127.408005 
L 122.23811 129.040271 
L 122.377181 129.035178 
L 122.516251 127.278447 
L 122.655322 127.584477 
L 122.794392 128.429428 
L 123.072534 128.016987 
L 123.350675 129.743494 
L 123.628816 128.185295 
L 123.906957 128.595915 
L 124.185098 130.064602 
L 124.463239 128.812503 
L 124.602309 129.016657 
L 124.74138 128.904593 
L 125.019521 130.135443 
L 125.158592 129.201629 
L 125.297662 129.064307 
L 125.575803 130.108862 
L 125.714874 130.406239 
L 125.853944 130.35227 
L 126.132085 129.638187 
L 126.410227 130.496142 
L 126.688368 129.591045 
L 126.827438 129.792013 
L 127.105579 130.767348 
L 127.24465 130.707827 
L 127.38372 130.354252 
L 127.522791 130.311357 
L 127.940002 131.096215 
L 128.079073 131.068296 
L 128.496285 128.084076 
L 128.635355 128.577377 
L 128.913496 131.133678 
L 129.052567 130.882872 
L 129.191637 130.065788 
L 129.330708 130.256091 
L 129.608849 131.344127 
L 130.026061 131.429433 
L 130.304202 130.820911 
L 130.443272 130.83045 
L 130.721413 131.824486 
L 130.999554 130.850173 
L 131.277695 131.950947 
L 131.833978 131.217674 
L 131.973048 131.07501 
L 132.112119 130.60346 
L 132.39026 126.365152 
L 132.668401 120.243709 
L 132.807471 119.619308 
L 132.946542 128.802452 
L 133.085613 129.747108 
L 133.224683 124.767004 
L 133.363754 130.092963 
L 133.502824 130.008771 
L 133.641895 128.340958 
L 133.780965 131.385667 
L 133.920036 129.033789 
L 134.059106 130.734764 
L 134.198177 130.555085 
L 134.337247 130.012996 
L 134.476318 131.45093 
L 134.615388 130.341511 
L 134.754459 131.941105 
L 134.89353 131.182751 
L 135.0326 131.876458 
L 135.588882 128.566196 
L 135.727953 129.052367 
L 136.284235 132.156292 
L 136.423306 131.594537 
L 136.979588 132.566773 
L 137.118658 132.585163 
L 137.396799 132.997234 
L 137.53587 132.96678 
L 137.67494 133.088028 
L 137.814011 132.991146 
L 138.092152 133.313879 
L 138.370293 133.280616 
L 138.648434 133.382106 
L 138.787505 133.46655 
L 139.065646 133.117504 
L 139.204716 132.795228 
L 139.621928 133.764103 
L 139.900069 133.838426 
L 140.317281 133.56997 
L 140.456351 133.635089 
L 140.734492 134.188183 
L 140.873563 134.234042 
L 141.012633 134.133948 
L 141.429845 133.081061 
L 141.847057 130.706301 
L 142.125198 132.129591 
L 142.403339 134.626836 
L 142.68148 133.03973 
L 142.82055 133.122492 
L 143.098691 134.48144 
L 143.376833 133.292215 
L 143.654974 134.831699 
L 143.933115 133.741442 
L 144.072185 133.964544 
L 144.211256 134.733113 
L 144.489397 134.021813 
L 144.767538 135.136146 
L 145.045679 133.65837 
L 145.32382 134.446009 
L 145.462891 134.030867 
L 145.601961 134.272734 
L 145.741032 134.96446 
L 146.019173 134.181111 
L 146.297314 135.558135 
L 146.436384 135.424252 
L 146.575455 134.670115 
L 146.714526 134.6249 
L 146.992667 135.588876 
L 147.131737 135.347045 
L 147.409878 133.903148 
L 147.688019 132.664782 
L 148.105231 135.284091 
L 148.244302 134.991219 
L 148.383372 135.251991 
L 148.661513 135.907917 
L 148.800584 136.082884 
L 148.939654 135.927116 
L 149.078725 135.432738 
L 149.217795 135.57023 
L 149.495936 136.238324 
L 149.774077 135.640071 
L 149.913148 135.87296 
L 150.191289 136.463984 
L 150.33036 136.259025 
L 150.608501 135.650539 
L 150.747571 135.654681 
L 151.025712 136.453862 
L 151.164783 135.711335 
L 151.442924 131.895549 
L 151.581995 132.135311 
L 151.721065 132.889734 
L 151.999206 136.811993 
L 152.416418 134.696942 
L 152.694559 135.367372 
L 152.833629 134.629171 
L 152.9727 134.638214 
L 153.250841 136.877314 
L 153.528982 136.107176 
L 153.668053 136.866299 
L 153.807123 136.961325 
L 154.085264 135.916015 
L 154.363405 137.257705 
L 154.502476 136.591903 
L 154.780617 137.275391 
L 155.47597 134.400082 
L 155.61504 134.286705 
L 156.171322 137.442317 
L 156.310393 137.209379 
L 156.588534 135.895037 
L 156.866675 137.123122 
L 157.005746 137.35713 
L 157.144816 137.339311 
L 157.283887 136.789558 
L 157.701098 138.051665 
L 157.840169 137.444109 
L 157.979239 137.443915 
L 158.25738 138.130989 
L 158.535522 137.728033 
L 158.674592 137.757125 
L 158.813663 138.200426 
L 158.952733 138.183819 
L 159.230874 136.62152 
L 159.369945 137.086407 
L 159.648086 138.41412 
L 159.787156 137.918965 
L 159.926227 137.881447 
L 160.204368 138.578713 
L 160.343439 138.675283 
L 160.62158 138.109769 
L 161.316932 132.98708 
L 161.734144 138.846314 
L 161.873215 138.774933 
L 162.012285 138.041546 
L 162.429497 138.851414 
L 162.568567 138.343773 
L 162.707638 138.373979 
L 162.846708 137.808787 
L 163.124849 135.350604 
L 163.542061 139.077354 
L 163.681132 138.627338 
L 164.098343 134.517107 
L 164.376484 138.937096 
L 164.793696 136.848802 
L 165.071837 139.057669 
L 165.210908 137.720426 
L 165.349978 137.734692 
L 165.628119 139.568547 
L 165.90626 137.593955 
L 166.045331 138.996494 
L 166.323472 138.981226 
L 166.462542 139.797192 
L 166.601613 139.786331 
L 166.740684 138.710988 
L 166.879754 138.728476 
L 167.157895 139.356835 
L 167.296966 139.281926 
L 167.575107 140.006175 
L 167.714177 139.683404 
L 167.853248 138.730891 
L 168.131389 139.075876 
L 168.270459 138.227345 
L 168.40953 138.919513 
L 168.548601 140.196673 
L 168.687671 139.928043 
L 168.826742 139.001139 
L 169.104883 140.496544 
L 169.243953 140.062898 
L 169.383024 140.171252 
L 169.522094 140.593374 
L 169.800235 140.565149 
L 170.078377 140.21168 
L 170.217447 139.783258 
L 170.356518 139.896653 
L 170.634659 140.93499 
L 170.9128 140.522335 
L 171.05187 139.976384 
L 171.190941 138.897506 
L 171.469082 136.215753 
L 171.608152 136.51826 
L 171.886294 139.311837 
L 172.025364 137.762661 
L 172.164435 137.90588 
L 172.442576 140.117622 
L 172.720717 136.054343 
L 172.998858 141.026813 
L 173.276999 138.925973 
L 173.416069 139.36772 
L 173.55514 141.113424 
L 173.694211 140.369625 
L 173.833281 139.008993 
L 174.111422 141.305486 
L 174.250493 139.674646 
L 174.389563 139.825836 
L 174.528634 141.333338 
L 174.806775 139.844074 
L 175.084916 141.470666 
L 175.223987 140.849511 
L 175.363057 141.021938 
L 175.641198 139.166421 
L 175.780269 139.447253 
L 176.05841 141.21638 
L 176.19748 141.421155 
L 176.336551 141.875572 
L 176.475621 141.833328 
L 176.614692 141.275662 
L 176.892833 142.116759 
L 177.031904 141.97383 
L 177.310045 141.831786 
L 177.449115 141.957199 
L 177.588186 141.80855 
L 177.727256 141.270094 
L 177.866327 141.550109 
L 178.005397 142.191848 
L 178.144468 142.241144 
L 178.283538 141.748393 
L 178.56168 142.671512 
L 178.70075 142.564374 
L 178.839821 142.227923 
L 179.117962 142.735994 
L 179.535173 142.378491 
L 179.813314 140.277575 
L 179.952385 140.623497 
L 180.091455 141.715858 
L 180.230526 141.495767 
L 180.647738 139.784529 
L 181.064949 134.126856 
L 181.482161 142.53901 
L 181.621231 140.75719 
L 181.760302 140.508078 
L 181.899373 142.702522 
L 182.038443 142.431553 
L 182.177514 140.851185 
L 182.455655 143.001565 
L 182.594725 141.402315 
L 182.872866 143.072044 
L 183.011937 141.873618 
L 183.151007 142.274221 
L 183.290078 143.371036 
L 183.429148 142.892422 
L 183.70729 143.257693 
L 183.84636 142.828696 
L 184.124501 143.291601 
L 184.402642 143.51929 
L 184.680783 142.531211 
L 184.819854 143.115327 
L 184.958924 142.938237 
L 185.097995 142.424549 
L 185.237066 142.89084 
L 185.654277 143.100611 
L 185.932418 143.888573 
L 186.210559 144.002712 
L 186.766841 142.793669 
L 187.044983 143.197594 
L 187.184053 143.111781 
L 187.462194 142.553095 
L 187.879406 140.577802 
L 188.157547 142.847891 
L 188.296617 144.101812 
L 188.435688 144.259168 
L 188.713829 142.885406 
L 188.8529 143.044618 
L 189.131041 144.727236 
L 189.548252 142.661128 
L 189.826393 144.992047 
L 190.243605 142.790296 
L 190.521746 144.793658 
L 190.799887 143.993653 
L 191.078028 145.001218 
L 191.217099 144.514007 
L 191.356169 143.475803 
L 191.356169 143.475803 
" clip-path="url(#p5aef097b39)" style="fill: none; stroke: #ff7f0e; stroke-width: 1.5; stroke-linecap: square"/>
   </g>
   <g id="line2d_26">
    <path d="M 52.424699 32.121396 
L 52.563769 28.160177 
L 52.70284 31.475603 
L 53.120051 32.344932 
L 53.815404 37.725811 
L 54.371686 45.02802 
L 56.457744 77.104297 
L 57.153097 82.084409 
L 57.570309 84.30636 
L 58.543802 87.654929 
L 58.682873 87.413225 
L 58.821943 88.301833 
L 58.961014 86.695517 
L 59.100085 88.126386 
L 59.239155 86.943266 
L 59.378226 88.882246 
L 59.656367 88.641576 
L 59.795437 89.232693 
L 59.934508 89.040054 
L 60.073578 90.083761 
L 60.212649 89.535949 
L 60.351719 89.886659 
L 60.49079 90.737191 
L 60.62986 89.630698 
L 60.768931 91.064449 
L 61.047072 90.854761 
L 61.325213 91.50089 
L 61.464284 91.428262 
L 61.603354 91.653095 
L 61.742425 92.128425 
L 61.881495 91.587146 
L 62.020566 92.344102 
L 62.159636 92.270355 
L 62.298707 92.45204 
L 62.437778 92.08262 
L 62.576848 92.804902 
L 62.715919 91.092315 
L 62.854989 92.684557 
L 62.99406 92.014756 
L 63.13313 93.629679 
L 63.272201 93.733323 
L 63.411271 92.083277 
L 63.550342 94.188568 
L 63.689412 94.309046 
L 63.828483 93.344647 
L 63.967553 94.689753 
L 64.106624 94.833904 
L 64.245695 94.356169 
L 64.384765 95.337784 
L 64.523836 95.491902 
L 64.662906 95.215303 
L 64.941047 96.194948 
L 65.080118 95.365685 
L 65.219188 96.648468 
L 65.358259 96.113111 
L 65.6364 97.107111 
L 65.775471 97.271563 
L 65.914541 97.613646 
L 66.053612 97.147165 
L 66.192682 97.886344 
L 66.331753 97.170517 
L 66.470823 98.410555 
L 66.609894 97.60436 
L 66.748964 98.982654 
L 66.888035 99.030751 
L 67.027105 98.484303 
L 67.166176 99.465898 
L 67.305246 98.206574 
L 67.444317 99.747967 
L 67.583388 99.782058 
L 67.861529 100.416558 
L 68.000599 99.751358 
L 68.13967 100.602908 
L 68.27874 99.641307 
L 68.417811 100.954308 
L 68.556881 100.469173 
L 68.695952 101.277466 
L 68.835022 100.760171 
L 68.974093 100.872006 
L 69.113163 100.749008 
L 69.252234 101.804257 
L 69.391305 101.261029 
L 69.530375 102.066176 
L 69.669446 100.63465 
L 69.808516 102.024525 
L 69.947587 100.492163 
L 70.086657 102.560751 
L 70.225728 101.458754 
L 70.364798 101.810626 
L 70.503869 101.607216 
L 70.642939 102.333676 
L 70.78201 102.194814 
L 70.921081 103.186189 
L 71.060151 102.031862 
L 71.338292 103.251374 
L 71.477363 103.042415 
L 71.616433 103.555909 
L 71.755504 102.97804 
L 71.894574 103.943025 
L 72.172715 103.378605 
L 72.311786 103.287664 
L 72.450856 104.216545 
L 72.589927 102.525535 
L 72.728998 103.794541 
L 72.868068 100.25869 
L 73.007139 102.364183 
L 73.146209 100.554308 
L 73.28528 104.209214 
L 73.42435 104.830976 
L 73.563421 101.753694 
L 73.841562 104.633305 
L 73.980632 103.139056 
L 74.119703 104.325719 
L 74.258774 104.350497 
L 74.397844 103.784341 
L 74.675985 105.231302 
L 74.815056 103.886941 
L 74.954126 105.358421 
L 75.093197 105.496326 
L 75.232267 104.29277 
L 75.371338 105.545756 
L 75.510408 105.693478 
L 75.649479 104.984144 
L 75.788549 105.636376 
L 75.92762 105.429972 
L 76.066691 105.495786 
L 76.205761 105.295714 
L 76.344832 106.005578 
L 76.483902 105.503593 
L 76.622973 105.495565 
L 76.762043 104.163415 
L 76.901114 104.448102 
L 77.040184 99.681375 
L 77.318325 103.772362 
L 77.457396 105.071706 
L 77.735537 104.282619 
L 77.874608 105.510777 
L 78.013678 105.65836 
L 78.152749 105.46194 
L 78.291819 104.786348 
L 78.43089 106.337135 
L 78.709031 105.181752 
L 78.848101 106.642961 
L 78.987172 105.545951 
L 79.126242 106.155297 
L 79.265313 106.138961 
L 79.404384 106.001024 
L 79.543454 106.823955 
L 79.682525 105.709965 
L 79.960666 106.876096 
L 80.099736 105.685197 
L 80.377877 107.161403 
L 80.516948 106.004402 
L 80.795089 107.191018 
L 80.93416 106.329357 
L 81.07323 107.185737 
L 81.212301 107.218369 
L 81.351371 106.341374 
L 81.490442 107.357069 
L 81.629512 106.973115 
L 81.768583 107.096658 
L 81.907653 107.415293 
L 82.046724 107.053072 
L 82.185794 107.404134 
L 82.324865 107.385559 
L 82.463935 106.867733 
L 82.603006 107.722987 
L 82.881147 107.091175 
L 83.020218 107.845214 
L 83.298359 107.406267 
L 83.437429 107.804807 
L 83.854641 107.150431 
L 83.993711 108.066036 
L 84.132782 106.69236 
L 84.271853 108.182111 
L 84.410923 106.874768 
L 84.549994 107.996553 
L 84.689064 107.395849 
L 84.828135 108.04544 
L 84.967205 107.249097 
L 85.106276 108.152242 
L 85.245346 106.861852 
L 85.384417 108.20309 
L 85.523487 105.15029 
L 85.662558 106.842156 
L 85.801628 101.929591 
L 85.940699 105.329771 
L 86.07977 103.606456 
L 86.21884 108.377252 
L 86.357911 107.70294 
L 86.496981 105.294098 
L 86.636052 108.324904 
L 86.914193 107.000243 
L 87.192334 108.412823 
L 87.331404 107.011176 
L 87.470475 108.589905 
L 87.609545 108.446881 
L 87.748616 107.256485 
L 87.887687 108.629015 
L 88.165828 108.105323 
L 88.304898 108.199683 
L 88.443969 108.766946 
L 88.583039 107.853807 
L 88.72211 108.588189 
L 88.86118 107.904513 
L 89.000251 108.799874 
L 89.139321 107.399487 
L 89.278392 108.955465 
L 89.417463 106.900671 
L 89.556533 108.530013 
L 89.695604 107.11424 
L 89.834674 108.856437 
L 89.973745 108.041896 
L 90.112815 108.897997 
L 90.251886 108.720428 
L 90.390956 108.033031 
L 90.530027 109.0958 
L 90.669097 107.315041 
L 90.808168 109.14093 
L 90.947238 108.349526 
L 91.086309 108.50303 
L 91.22538 109.302415 
L 91.36445 108.453441 
L 91.503521 108.910784 
L 91.642591 108.497169 
L 91.781662 109.205772 
L 91.920732 107.895196 
L 92.059803 109.464347 
L 92.198873 108.267625 
L 92.337944 109.36889 
L 92.477014 109.267746 
L 92.616085 108.596348 
L 92.755156 109.521227 
L 92.894226 107.592212 
L 93.033297 109.492637 
L 93.172367 107.081177 
L 93.311438 108.729134 
L 93.450508 106.569184 
L 93.589579 108.146628 
L 93.728649 107.23941 
L 94.00679 109.598774 
L 94.145861 107.285446 
L 94.424002 108.78045 
L 94.563073 108.33008 
L 94.702143 109.362715 
L 94.841214 105.400864 
L 94.980284 108.542196 
L 95.119355 104.900903 
L 95.258425 107.019202 
L 95.397496 106.612049 
L 95.536566 109.655665 
L 95.814707 107.905547 
L 95.953778 109.399756 
L 96.092849 107.820481 
L 96.231919 109.42373 
L 96.37099 109.271903 
L 96.51006 108.454343 
L 96.649131 109.827757 
L 96.927272 108.584955 
L 97.066342 110.014481 
L 97.205413 108.974384 
L 97.483554 109.797975 
L 97.622624 108.675483 
L 97.761695 109.824809 
L 97.900766 109.69094 
L 98.039836 109.067114 
L 98.178907 110.135445 
L 98.317977 108.951727 
L 98.596118 110.044894 
L 98.735189 109.447619 
L 98.874259 110.207914 
L 99.01333 109.499871 
L 99.291471 110.272487 
L 99.430542 109.255605 
L 99.569612 110.163386 
L 99.847753 109.897656 
L 99.986824 110.192138 
L 100.125894 109.433924 
L 100.264965 110.230611 
L 100.404035 109.360407 
L 100.543106 110.323354 
L 100.682176 109.52493 
L 100.821247 109.936166 
L 100.960317 108.944199 
L 101.099388 110.369502 
L 101.238459 108.864072 
L 101.377529 110.615806 
L 101.5166 109.346415 
L 101.65567 110.487765 
L 101.794741 109.958497 
L 101.933811 110.375547 
L 102.072882 110.373339 
L 102.211952 109.535013 
L 102.351023 110.767965 
L 102.490093 107.560218 
L 102.629164 110.083451 
L 102.768235 103.791178 
L 102.907305 106.305571 
L 103.046376 100.707458 
L 103.185446 108.219935 
L 103.463587 107.421988 
L 103.602658 107.87188 
L 103.741728 109.399919 
L 103.880799 108.510654 
L 104.15894 110.615584 
L 104.29801 106.967572 
L 104.437081 110.081027 
L 104.576152 110.48882 
L 104.715222 107.50457 
L 104.854293 110.599339 
L 104.993363 109.217246 
L 105.410575 110.064645 
L 105.549645 110.784879 
L 105.688716 107.920757 
L 105.827786 111.093246 
L 106.105927 110.148715 
L 106.523139 111.170553 
L 106.66221 109.929597 
L 106.940351 111.185566 
L 107.079421 110.195097 
L 107.218492 110.676429 
L 107.357562 109.981741 
L 107.496633 111.372919 
L 107.635703 110.202826 
L 107.913845 111.31448 
L 108.052915 110.211484 
L 108.191986 111.024417 
L 108.331056 110.854654 
L 108.470127 111.367641 
L 108.609197 110.60195 
L 108.887338 111.439752 
L 109.026409 110.331827 
L 109.165479 111.165579 
L 109.30455 110.216348 
L 109.44362 111.661516 
L 109.582691 109.998396 
L 109.721762 111.534842 
L 109.999903 111.123492 
L 110.138973 111.316127 
L 110.278044 110.736396 
L 110.417114 111.409238 
L 110.556185 110.042057 
L 110.695255 111.720254 
L 110.834326 110.228801 
L 110.973396 111.337852 
L 111.112467 110.767299 
L 111.251538 111.791918 
L 111.390608 110.902542 
L 111.529679 111.136818 
L 111.668749 111.839597 
L 111.80782 109.81508 
L 111.94689 111.170044 
L 112.085961 109.855101 
L 112.225031 111.103443 
L 112.364102 108.868572 
L 112.503172 111.834113 
L 112.642243 110.642429 
L 112.920384 111.874669 
L 113.059455 110.613261 
L 113.198525 111.903114 
L 113.337596 110.598227 
L 113.476666 111.949326 
L 113.615737 111.8038 
L 113.754807 110.381124 
L 113.893878 111.897782 
L 114.032948 109.333667 
L 114.172019 111.565962 
L 114.311089 111.937903 
L 114.45016 109.273348 
L 114.589231 111.809815 
L 114.728301 110.089695 
L 115.006442 112.037614 
L 115.145513 110.239848 
L 115.284583 112.115399 
L 115.423654 111.126214 
L 115.562724 111.929369 
L 115.701795 111.937414 
L 115.840865 110.827985 
L 115.979936 112.076173 
L 116.119006 110.603056 
L 116.258077 111.96049 
L 116.397148 112.070555 
L 116.536218 111.201168 
L 116.675289 111.740589 
L 116.95343 111.020691 
L 117.0925 112.355238 
L 117.231571 109.734129 
L 117.370641 112.335157 
L 117.509712 110.612691 
L 117.648782 112.169691 
L 117.787853 112.137462 
L 117.926924 110.09576 
L 118.065994 111.851365 
L 118.205065 108.653706 
L 118.344135 112.379115 
L 118.483206 110.829738 
L 118.622276 112.273855 
L 118.761347 112.449267 
L 118.900417 110.715216 
L 119.039488 112.45269 
L 119.317629 111.865697 
L 119.456699 112.371642 
L 119.59577 111.682685 
L 119.873911 112.464657 
L 120.012982 111.785757 
L 120.152052 112.611759 
L 120.430193 111.872407 
L 120.569264 112.723963 
L 120.708334 110.82595 
L 120.847405 112.749507 
L 120.986475 108.62352 
L 121.125546 111.647187 
L 121.264616 106.778759 
L 121.403687 110.801313 
L 121.542758 108.596781 
L 121.820899 112.957784 
L 121.959969 110.016541 
L 122.09904 112.320974 
L 122.377181 111.508107 
L 122.516251 112.637652 
L 122.655322 109.911057 
L 122.794392 112.934697 
L 122.933463 111.653191 
L 123.072534 111.48555 
L 123.211604 112.656999 
L 123.350675 112.68542 
L 123.628816 111.543206 
L 123.767886 112.961336 
L 123.906957 110.710675 
L 124.046027 113.273024 
L 124.185098 113.057022 
L 124.324168 111.205031 
L 124.463239 113.180949 
L 124.602309 111.689332 
L 124.880451 112.788414 
L 125.019521 112.789555 
L 125.297662 112.066271 
L 125.436733 113.25162 
L 125.575803 112.2493 
L 125.714874 113.266283 
L 125.853944 113.367926 
L 125.993015 111.930138 
L 126.132085 113.609383 
L 126.271156 112.484062 
L 126.410227 112.789123 
L 126.549297 113.59903 
L 126.688368 111.17429 
L 126.827438 113.57148 
L 126.966509 112.42119 
L 127.24465 113.435647 
L 127.38372 112.25147 
L 127.522791 113.379154 
L 127.661861 112.348441 
L 127.800932 113.545716 
L 127.940002 113.332633 
L 128.079073 112.718703 
L 128.218144 113.630471 
L 128.357214 111.025037 
L 128.496285 112.648924 
L 128.635355 110.886793 
L 128.774426 113.161126 
L 129.052567 112.880242 
L 129.191637 113.334559 
L 129.330708 112.30283 
L 129.469778 113.769916 
L 129.608849 112.959124 
L 129.74792 113.583854 
L 129.88699 113.57564 
L 130.026061 112.846298 
L 130.165131 114.046886 
L 130.304202 112.05933 
L 130.443272 113.96002 
L 130.582343 112.878872 
L 130.860484 113.704279 
L 130.999554 112.442874 
L 131.138625 113.760072 
L 131.277695 113.491664 
L 131.416766 113.516059 
L 131.555837 113.739743 
L 131.694907 113.073049 
L 131.973048 113.432741 
L 132.112119 111.816752 
L 132.251189 113.042749 
L 132.39026 107.33753 
L 132.52933 108.788405 
L 132.668401 102.986157 
L 132.946542 109.870635 
L 133.085613 111.832967 
L 133.224683 110.262007 
L 133.363754 112.130365 
L 133.502824 111.355244 
L 133.780965 113.857671 
L 133.920036 110.672624 
L 134.059106 113.6658 
L 134.198177 113.621411 
L 134.337247 111.775668 
L 134.476318 113.230348 
L 134.754459 113.797652 
L 134.89353 112.693036 
L 135.0326 113.809035 
L 135.171671 113.094525 
L 135.310741 113.719322 
L 135.449812 109.906601 
L 135.588882 113.292705 
L 135.727953 111.07928 
L 135.867023 113.65763 
L 136.006094 112.342207 
L 136.145164 113.848154 
L 136.284235 114.093737 
L 136.423306 112.515721 
L 136.562376 114.064291 
L 136.701447 113.734858 
L 136.840517 114.030475 
L 137.118658 113.830088 
L 137.257729 114.316526 
L 137.396799 114.316545 
L 137.814011 113.977578 
L 137.953081 114.563702 
L 138.092152 114.030457 
L 138.231223 114.13013 
L 138.370293 114.4843 
L 138.509364 114.073038 
L 138.648434 114.594683 
L 138.926575 114.002821 
L 139.065646 114.800979 
L 139.204716 113.298986 
L 139.343787 114.810883 
L 139.482857 113.984776 
L 139.621928 114.480465 
L 140.03914 114.711852 
L 140.17821 114.053519 
L 140.317281 114.739981 
L 140.456351 113.870594 
L 140.595422 114.836289 
L 140.734492 114.698343 
L 140.873563 114.372954 
L 141.012633 114.899971 
L 141.151704 113.767748 
L 141.290774 114.965526 
L 141.429845 113.228805 
L 141.568916 114.521285 
L 141.707986 112.121072 
L 141.847057 114.114247 
L 141.986127 111.853722 
L 142.125198 114.678085 
L 142.264268 113.700988 
L 142.403339 114.936721 
L 142.542409 114.769232 
L 142.68148 112.74975 
L 142.82055 115.145521 
L 142.959621 113.639919 
L 143.237762 115.186957 
L 143.376833 112.903336 
L 143.515903 115.040286 
L 143.654974 115.019654 
L 143.794044 114.028402 
L 143.933115 114.991787 
L 144.072185 113.863484 
L 144.350326 115.249705 
L 144.489397 113.373747 
L 144.628467 115.289053 
L 144.767538 114.96141 
L 144.906609 113.790957 
L 145.045679 115.27993 
L 145.18475 113.127511 
L 145.462891 115.236328 
L 145.601961 113.293891 
L 145.741032 115.407673 
L 146.019173 113.860354 
L 146.158243 115.138812 
L 146.436384 114.923956 
L 146.714526 114.691063 
L 146.853596 114.601326 
L 146.992667 115.640983 
L 147.131737 114.494681 
L 147.270808 114.84729 
L 147.409878 114.695005 
L 147.548949 112.605627 
L 147.688019 114.453193 
L 147.82709 112.597885 
L 147.96616 115.507078 
L 148.244302 114.317284 
L 148.383372 115.345988 
L 148.522443 114.619147 
L 148.661513 115.760569 
L 148.939654 114.583348 
L 149.078725 115.846779 
L 149.217795 113.830615 
L 149.356866 115.589794 
L 149.495936 115.331323 
L 149.635007 114.452971 
L 149.774077 115.852838 
L 149.913148 114.323474 
L 150.052219 115.790414 
L 150.191289 115.558072 
L 150.33036 114.785019 
L 150.46943 116.005581 
L 150.608501 113.862637 
L 150.747571 115.901046 
L 150.886642 114.473176 
L 151.164783 115.765365 
L 151.303853 112.964861 
L 151.442924 114.334619 
L 151.581995 111.628584 
L 151.721065 114.714115 
L 151.860136 113.941715 
L 151.999206 115.713942 
L 152.138277 115.417089 
L 152.277347 114.467052 
L 152.416418 114.817995 
L 152.555488 114.623674 
L 152.694559 113.6313 
L 152.833629 115.592119 
L 152.9727 112.563943 
L 153.11177 116.111321 
L 153.389912 114.703451 
L 153.528982 115.993822 
L 153.668053 114.969463 
L 153.946194 115.785094 
L 154.085264 113.996196 
L 154.224335 115.858687 
L 154.363405 115.654021 
L 154.502476 115.021903 
L 154.641546 115.73729 
L 154.780617 115.738955 
L 154.919688 114.287127 
L 155.058758 116.088914 
L 155.197829 112.969147 
L 155.336899 115.214114 
L 155.47597 113.291574 
L 155.61504 114.481628 
L 155.754111 113.494464 
L 155.893181 115.842904 
L 156.032252 114.513297 
L 156.171322 116.188376 
L 156.310393 116.077275 
L 156.449463 113.755013 
L 156.588534 116.041148 
L 156.727605 114.140834 
L 156.866675 115.821239 
L 157.005746 116.1172 
L 157.144816 114.666361 
L 157.283887 116.246896 
L 157.422957 114.669334 
L 157.562028 116.132624 
L 157.701098 116.055965 
L 157.840169 114.840622 
L 157.979239 116.332914 
L 158.11831 115.380189 
L 158.396451 116.377467 
L 158.535522 114.841402 
L 158.674592 116.085517 
L 158.952733 115.442322 
L 159.091804 115.989042 
L 159.230874 114.213587 
L 159.369945 115.741222 
L 159.648086 115.8284 
L 159.787156 116.317938 
L 159.926227 115.098184 
L 160.065298 116.433676 
L 160.204368 115.940776 
L 160.343439 115.965183 
L 160.482509 116.619159 
L 160.62158 114.817519 
L 160.76065 116.513069 
L 160.899721 113.4858 
L 161.038791 115.524896 
L 161.177862 112.158576 
L 161.316932 114.852303 
L 161.456003 113.003641 
L 161.595073 116.320522 
L 161.734144 115.759514 
L 162.012285 116.164688 
L 162.151356 115.533129 
L 162.290426 116.578886 
L 162.429497 115.476056 
L 162.568567 116.120822 
L 162.707638 115.55636 
L 162.846708 116.384808 
L 162.985779 113.077291 
L 163.124849 115.772935 
L 163.26392 113.092625 
L 163.402991 116.569268 
L 163.542061 116.267058 
L 163.681132 114.991992 
L 163.820202 116.444698 
L 163.959273 112.406088 
L 164.098343 114.699677 
L 164.237414 114.32994 
L 164.515555 116.67256 
L 164.654625 113.552635 
L 164.793696 115.863346 
L 164.932766 115.783624 
L 165.071837 115.310971 
L 165.210908 116.402802 
L 165.349978 114.571658 
L 165.628119 116.882545 
L 165.76719 115.057269 
L 165.90626 116.030357 
L 166.045331 115.982005 
L 166.184401 115.422278 
L 166.323472 116.809997 
L 166.462542 115.869035 
L 166.601613 116.275736 
L 166.740684 117.028905 
L 166.879754 114.627903 
L 167.018825 116.962125 
L 167.296966 115.956339 
L 167.575107 116.703764 
L 167.714177 116.092909 
L 167.992318 116.457425 
L 168.131389 114.975264 
L 168.270459 116.923196 
L 168.40953 114.873431 
L 168.687671 117.211397 
L 168.826742 114.612329 
L 168.965812 117.166563 
L 169.243953 115.883005 
L 169.383024 117.151444 
L 169.522094 116.408632 
L 169.661165 116.444674 
L 169.800235 117.088566 
L 169.939306 116.067328 
L 170.078377 116.794959 
L 170.217447 116.00111 
L 170.356518 116.528125 
L 170.495588 116.173648 
L 170.634659 117.144752 
L 170.773729 116.538542 
L 170.9128 116.598381 
L 171.05187 117.078126 
L 171.190941 114.485027 
L 171.330011 116.589998 
L 171.469082 112.043672 
L 171.608152 116.362232 
L 171.747223 114.217795 
L 171.886294 116.264471 
L 172.025364 115.965765 
L 172.164435 113.541074 
L 172.303505 117.197518 
L 172.581646 114.641935 
L 172.720717 115.192122 
L 172.859787 114.642714 
L 172.998858 116.852173 
L 173.137928 117.151769 
L 173.276999 114.403364 
L 173.416069 117.084879 
L 173.55514 116.562688 
L 173.694211 115.323223 
L 173.833281 117.0403 
L 173.972352 115.616951 
L 174.250493 117.271458 
L 174.389563 114.977896 
L 174.528634 117.606173 
L 174.806775 115.704874 
L 175.084916 117.583552 
L 175.223987 116.045843 
L 175.502128 117.527486 
L 175.641198 114.29152 
L 175.780269 117.330653 
L 175.919339 116.263333 
L 176.19748 117.57935 
L 176.336551 116.979171 
L 176.475621 116.895635 
L 176.614692 117.32489 
L 176.753762 116.491144 
L 176.892833 117.352129 
L 177.031904 117.280341 
L 177.310045 116.906548 
L 177.449115 117.620885 
L 177.588186 116.555523 
L 177.727256 117.459058 
L 177.866327 116.128341 
L 178.005397 117.596682 
L 178.144468 117.440069 
L 178.283538 116.257842 
L 178.422609 117.747041 
L 178.70075 116.955036 
L 178.839821 117.689931 
L 178.978891 116.84839 
L 179.257032 117.557526 
L 179.396103 117.280858 
L 179.535173 116.626584 
L 179.674244 117.873188 
L 179.813314 114.654454 
L 179.952385 117.632303 
L 180.091455 115.827892 
L 180.230526 117.319036 
L 180.369597 115.96554 
L 180.508667 116.528451 
L 180.647738 115.087764 
L 180.786808 116.477805 
L 180.925879 111.567836 
L 181.064949 115.205671 
L 181.20402 113.075711 
L 181.34309 117.481579 
L 181.482161 117.717036 
L 181.621231 114.857573 
L 181.760302 117.587233 
L 182.038443 116.295809 
L 182.177514 117.639426 
L 182.316584 116.355449 
L 182.594725 117.756928 
L 182.733796 116.209409 
L 183.011937 117.881047 
L 183.151007 115.870816 
L 183.290078 117.92996 
L 183.429148 117.863568 
L 183.568219 116.701416 
L 183.70729 117.829781 
L 183.84636 117.211112 
L 183.985431 117.44807 
L 184.124501 117.139945 
L 184.263572 117.891771 
L 184.402642 117.56654 
L 184.541713 116.933158 
L 184.680783 117.981482 
L 184.819854 116.731273 
L 184.958924 117.667123 
L 185.097995 117.222416 
L 185.237066 117.500125 
L 185.376136 116.874636 
L 185.515207 118.059584 
L 185.654277 116.500518 
L 185.793348 117.874756 
L 185.932418 117.953035 
L 186.071489 117.397357 
L 186.210559 117.87538 
L 186.34963 117.593737 
L 186.4887 117.714868 
L 186.627771 116.06414 
L 186.766841 117.947693 
L 186.905912 116.455884 
L 187.044983 117.993801 
L 187.184053 116.627377 
L 187.323124 117.755807 
L 187.462194 116.16577 
L 187.601265 117.621139 
L 187.740335 115.417827 
L 187.879406 117.043951 
L 188.018476 115.612464 
L 188.157547 117.64133 
L 188.296617 117.718833 
L 188.435688 117.558447 
L 188.574759 117.92761 
L 188.713829 116.374245 
L 188.8529 117.725685 
L 188.99197 117.356461 
L 189.131041 117.945046 
L 189.270111 117.643635 
L 189.409182 116.367553 
L 189.548252 117.51223 
L 189.687323 116.896819 
L 189.826393 118.075327 
L 189.965464 118.08741 
L 190.104534 116.420987 
L 190.243605 117.819827 
L 190.382676 116.803891 
L 190.660817 118.423111 
L 190.799887 116.418559 
L 190.938958 118.384664 
L 191.078028 117.948979 
L 191.217099 116.985497 
L 191.356169 118.206326 
L 191.356169 118.206326 
" clip-path="url(#p5aef097b39)" style="fill: none; stroke: #d62728; stroke-width: 1.5; stroke-linecap: square"/>
   </g>
   <g id="patch_3">
    <path d="M 45.478125 150.84327 
L 45.478125 22.318125 
" style="fill: none; stroke: #000000; stroke-width: 0.8; stroke-linejoin: miter; stroke-linecap: square"/>
   </g>
   <g id="patch_4">
    <path d="M 198.302743 150.84327 
L 198.302743 22.318125 
" style="fill: none; stroke: #000000; stroke-width: 0.8; stroke-linejoin: miter; stroke-linecap: square"/>
   </g>
   <g id="patch_5">
    <path d="M 45.478125 150.84327 
L 198.302743 150.84327 
" style="fill: none; stroke: #000000; stroke-width: 0.8; stroke-linejoin: miter; stroke-linecap: square"/>
   </g>
   <g id="patch_6">
    <path d="M 45.478125 22.318125 
L 198.302743 22.318125 
" style="fill: none; stroke: #000000; stroke-width: 0.8; stroke-linejoin: miter; stroke-linecap: square"/>
   </g>
   <g id="text_9">
    <!-- Autoencoder training loss -->
    <g transform="translate(44.881371 16.318125) scale(0.12 -0.12)">
     <defs>
      <path id="DejaVuSans-41" d="M 2188 4044 
L 1331 1722 
L 3047 1722 
L 2188 4044 
z
M 1831 4666 
L 2547 4666 
L 4325 0 
L 3669 0 
L 3244 1197 
L 1141 1197 
L 716 0 
L 50 0 
L 1831 4666 
z
" transform="scale(0.015625)"/>
      <path id="DejaVuSans-64" d="M 2906 2969 
L 2906 4863 
L 3481 4863 
L 3481 0 
L 2906 0 
L 2906 525 
Q 2725 213 2448 61 
Q 2172 -91 1784 -91 
Q 1150 -91 751 415 
Q 353 922 353 1747 
Q 353 2572 751 3078 
Q 1150 3584 1784 3584 
Q 2172 3584 2448 3432 
Q 2725 3281 2906 2969 
z
M 947 1747 
Q 947 1113 1208 752 
Q 1469 391 1925 391 
Q 2381 391 2643 752 
Q 2906 1113 2906 1747 
Q 2906 2381 2643 2742 
Q 2381 3103 1925 3103 
Q 1469 3103 1208 2742 
Q 947 2381 947 1747 
z
" transform="scale(0.015625)"/>
      <path id="DejaVuSans-61" d="M 2194 1759 
Q 1497 1759 1228 1600 
Q 959 1441 959 1056 
Q 959 750 1161 570 
Q 1363 391 1709 391 
Q 2188 391 2477 730 
Q 2766 1069 2766 1631 
L 2766 1759 
L 2194 1759 
z
M 3341 1997 
L 3341 0 
L 2766 0 
L 2766 531 
Q 2569 213 2275 61 
Q 1981 -91 1556 -91 
Q 1019 -91 701 211 
Q 384 513 384 1019 
Q 384 1609 779 1909 
Q 1175 2209 1959 2209 
L 2766 2209 
L 2766 2266 
Q 2766 2663 2505 2880 
Q 2244 3097 1772 3097 
Q 1472 3097 1187 3025 
Q 903 2953 641 2809 
L 641 3341 
Q 956 3463 1253 3523 
Q 1550 3584 1831 3584 
Q 2591 3584 2966 3190 
Q 3341 2797 3341 1997 
z
" transform="scale(0.015625)"/>
      <path id="DejaVuSans-67" d="M 2906 1791 
Q 2906 2416 2648 2759 
Q 2391 3103 1925 3103 
Q 1463 3103 1205 2759 
Q 947 2416 947 1791 
Q 947 1169 1205 825 
Q 1463 481 1925 481 
Q 2391 481 2648 825 
Q 2906 1169 2906 1791 
z
M 3481 434 
Q 3481 -459 3084 -895 
Q 2688 -1331 1869 -1331 
Q 1566 -1331 1297 -1286 
Q 1028 -1241 775 -1147 
L 775 -588 
Q 1028 -725 1275 -790 
Q 1522 -856 1778 -856 
Q 2344 -856 2625 -561 
Q 2906 -266 2906 331 
L 2906 616 
Q 2728 306 2450 153 
Q 2172 0 1784 0 
Q 1141 0 747 490 
Q 353 981 353 1791 
Q 353 2603 747 3093 
Q 1141 3584 1784 3584 
Q 2172 3584 2450 3431 
Q 2728 3278 2906 2969 
L 2906 3500 
L 3481 3500 
L 3481 434 
z
" transform="scale(0.015625)"/>
      <path id="DejaVuSans-6c" d="M 603 4863 
L 1178 4863 
L 1178 0 
L 603 0 
L 603 4863 
z
" transform="scale(0.015625)"/>
     </defs>
     <use xlink:href="#DejaVuSans-41"/>
     <use xlink:href="#DejaVuSans-75" x="68.408203"/>
     <use xlink:href="#DejaVuSans-74" x="131.787109"/>
     <use xlink:href="#DejaVuSans-6f" x="170.996094"/>
     <use xlink:href="#DejaVuSans-65" x="232.177734"/>
     <use xlink:href="#DejaVuSans-6e" x="293.701172"/>
     <use xlink:href="#DejaVuSans-63" x="357.080078"/>
     <use xlink:href="#DejaVuSans-6f" x="412.060547"/>
     <use xlink:href="#DejaVuSans-64" x="473.242188"/>
     <use xlink:href="#DejaVuSans-65" x="536.71875"/>
     <use xlink:href="#DejaVuSans-72" x="598.242188"/>
     <use xlink:href="#DejaVuSans-20" x="639.355469"/>
     <use xlink:href="#DejaVuSans-74" x="671.142578"/>
     <use xlink:href="#DejaVuSans-72" x="710.351562"/>
     <use xlink:href="#DejaVuSans-61" x="751.464844"/>
     <use xlink:href="#DejaVuSans-69" x="812.744141"/>
     <use xlink:href="#DejaVuSans-6e" x="840.527344"/>
     <use xlink:href="#DejaVuSans-69" x="903.90625"/>
     <use xlink:href="#DejaVuSans-6e" x="931.689453"/>
     <use xlink:href="#DejaVuSans-67" x="995.068359"/>
     <use xlink:href="#DejaVuSans-20" x="1058.544922"/>
     <use xlink:href="#DejaVuSans-6c" x="1090.332031"/>
     <use xlink:href="#DejaVuSans-6f" x="1118.115234"/>
     <use xlink:href="#DejaVuSans-73" x="1179.296875"/>
     <use xlink:href="#DejaVuSans-73" x="1231.396484"/>
    </g>
   </g>
   <g id="legend_1">
    <g id="patch_7">
     <path d="M 68.935555 59.674375 
L 191.302743 59.674375 
Q 193.302743 59.674375 193.302743 57.674375 
L 193.302743 29.318125 
Q 193.302743 27.318125 191.302743 27.318125 
L 68.935555 27.318125 
Q 66.935555 27.318125 66.935555 29.318125 
L 66.935555 57.674375 
Q 66.935555 59.674375 68.935555 59.674375 
z
" style="fill: #ffffff; opacity: 0.8; stroke: #cccccc; stroke-linejoin: miter"/>
    </g>
    <g id="line2d_27">
     <path d="M 70.935555 35.416563 
L 80.935555 35.416563 
L 90.935555 35.416563 
" style="fill: none; stroke: #ff7f0e; stroke-width: 1.5; stroke-linecap: square"/>
    </g>
    <g id="text_10">
     <!-- Training dataset -->
     <g transform="translate(98.935555 38.916563) scale(0.1 -0.1)">
      <defs>
       <path id="DejaVuSans-54" d="M -19 4666 
L 3928 4666 
L 3928 4134 
L 2272 4134 
L 2272 0 
L 1638 0 
L 1638 4134 
L -19 4134 
L -19 4666 
z
" transform="scale(0.015625)"/>
      </defs>
      <use xlink:href="#DejaVuSans-54"/>
      <use xlink:href="#DejaVuSans-72" x="46.333984"/>
      <use xlink:href="#DejaVuSans-61" x="87.447266"/>
      <use xlink:href="#DejaVuSans-69" x="148.726562"/>
      <use xlink:href="#DejaVuSans-6e" x="176.509766"/>
      <use xlink:href="#DejaVuSans-69" x="239.888672"/>
      <use xlink:href="#DejaVuSans-6e" x="267.671875"/>
      <use xlink:href="#DejaVuSans-67" x="331.050781"/>
      <use xlink:href="#DejaVuSans-20" x="394.527344"/>
      <use xlink:href="#DejaVuSans-64" x="426.314453"/>
      <use xlink:href="#DejaVuSans-61" x="489.791016"/>
      <use xlink:href="#DejaVuSans-74" x="551.070312"/>
      <use xlink:href="#DejaVuSans-61" x="590.279297"/>
      <use xlink:href="#DejaVuSans-73" x="651.558594"/>
      <use xlink:href="#DejaVuSans-65" x="703.658203"/>
      <use xlink:href="#DejaVuSans-74" x="765.181641"/>
     </g>
    </g>
    <g id="line2d_28">
     <path d="M 70.935555 50.094688 
L 80.935555 50.094688 
L 90.935555 50.094688 
" style="fill: none; stroke: #d62728; stroke-width: 1.5; stroke-linecap: square"/>
    </g>
    <g id="text_11">
     <!-- Validation dataset -->
     <g transform="translate(98.935555 53.594688) scale(0.1 -0.1)">
      <defs>
       <path id="DejaVuSans-56" d="M 1831 0 
L 50 4666 
L 709 4666 
L 2188 738 
L 3669 4666 
L 4325 4666 
L 2547 0 
L 1831 0 
z
" transform="scale(0.015625)"/>
      </defs>
      <use xlink:href="#DejaVuSans-56"/>
      <use xlink:href="#DejaVuSans-61" x="60.658203"/>
      <use xlink:href="#DejaVuSans-6c" x="121.9375"/>
      <use xlink:href="#DejaVuSans-69" x="149.720703"/>
      <use xlink:href="#DejaVuSans-64" x="177.503906"/>
      <use xlink:href="#DejaVuSans-61" x="240.980469"/>
      <use xlink:href="#DejaVuSans-74" x="302.259766"/>
      <use xlink:href="#DejaVuSans-69" x="341.46875"/>
      <use xlink:href="#DejaVuSans-6f" x="369.251953"/>
      <use xlink:href="#DejaVuSans-6e" x="430.433594"/>
      <use xlink:href="#DejaVuSans-20" x="493.8125"/>
      <use xlink:href="#DejaVuSans-64" x="525.599609"/>
      <use xlink:href="#DejaVuSans-61" x="589.076172"/>
      <use xlink:href="#DejaVuSans-74" x="650.355469"/>
      <use xlink:href="#DejaVuSans-61" x="689.564453"/>
      <use xlink:href="#DejaVuSans-73" x="750.84375"/>
      <use xlink:href="#DejaVuSans-65" x="802.943359"/>
      <use xlink:href="#DejaVuSans-74" x="864.466797"/>
     </g>
    </g>
   </g>
  </g>
  <g id="axes_2">
   <g id="patch_8">
    <path d="M 271.400077 150.84327 
L 424.224695 150.84327 
L 424.224695 22.318125 
L 271.400077 22.318125 
z
" style="fill: #ffffff"/>
   </g>
   <g id="matplotlib.axis_3">
    <g id="xtick_6">
     <g id="line2d_29">
      <path d="M 278.34665 150.84327 
L 278.34665 22.318125 
" clip-path="url(#paef4ccddcb)" style="fill: none; stroke: #b0b0b0; stroke-width: 0.8; stroke-linecap: square"/>
     </g>
     <g id="line2d_30">
      <g>
       <use xlink:href="#m76db718421" x="278.34665" y="150.84327" style="stroke: #000000; stroke-width: 0.8"/>
      </g>
     </g>
     <g id="text_12">
      <!-- 0 -->
      <g transform="translate(275.1654 165.441708) scale(0.1 -0.1)">
       <use xlink:href="#DejaVuSans-30"/>
      </g>
     </g>
    </g>
    <g id="xtick_7">
     <g id="line2d_31">
      <path d="M 313.082992 150.84327 
L 313.082992 22.318125 
" clip-path="url(#paef4ccddcb)" style="fill: none; stroke: #b0b0b0; stroke-width: 0.8; stroke-linecap: square"/>
     </g>
     <g id="line2d_32">
      <g>
       <use xlink:href="#m76db718421" x="313.082992" y="150.84327" style="stroke: #000000; stroke-width: 0.8"/>
      </g>
     </g>
     <g id="text_13">
      <!-- 2500 -->
      <g transform="translate(300.357992 165.441708) scale(0.1 -0.1)">
       <use xlink:href="#DejaVuSans-32"/>
       <use xlink:href="#DejaVuSans-35" x="63.623047"/>
       <use xlink:href="#DejaVuSans-30" x="127.246094"/>
       <use xlink:href="#DejaVuSans-30" x="190.869141"/>
      </g>
     </g>
    </g>
    <g id="xtick_8">
     <g id="line2d_33">
      <path d="M 347.819333 150.84327 
L 347.819333 22.318125 
" clip-path="url(#paef4ccddcb)" style="fill: none; stroke: #b0b0b0; stroke-width: 0.8; stroke-linecap: square"/>
     </g>
     <g id="line2d_34">
      <g>
       <use xlink:href="#m76db718421" x="347.819333" y="150.84327" style="stroke: #000000; stroke-width: 0.8"/>
      </g>
     </g>
     <g id="text_14">
      <!-- 5000 -->
      <g transform="translate(335.094333 165.441708) scale(0.1 -0.1)">
       <use xlink:href="#DejaVuSans-35"/>
       <use xlink:href="#DejaVuSans-30" x="63.623047"/>
       <use xlink:href="#DejaVuSans-30" x="127.246094"/>
       <use xlink:href="#DejaVuSans-30" x="190.869141"/>
      </g>
     </g>
    </g>
    <g id="xtick_9">
     <g id="line2d_35">
      <path d="M 382.555674 150.84327 
L 382.555674 22.318125 
" clip-path="url(#paef4ccddcb)" style="fill: none; stroke: #b0b0b0; stroke-width: 0.8; stroke-linecap: square"/>
     </g>
     <g id="line2d_36">
      <g>
       <use xlink:href="#m76db718421" x="382.555674" y="150.84327" style="stroke: #000000; stroke-width: 0.8"/>
      </g>
     </g>
     <g id="text_15">
      <!-- 7500 -->
      <g transform="translate(369.830674 165.441708) scale(0.1 -0.1)">
       <use xlink:href="#DejaVuSans-37"/>
       <use xlink:href="#DejaVuSans-35" x="63.623047"/>
       <use xlink:href="#DejaVuSans-30" x="127.246094"/>
       <use xlink:href="#DejaVuSans-30" x="190.869141"/>
      </g>
     </g>
    </g>
    <g id="xtick_10">
     <g id="line2d_37">
      <path d="M 417.292016 150.84327 
L 417.292016 22.318125 
" clip-path="url(#paef4ccddcb)" style="fill: none; stroke: #b0b0b0; stroke-width: 0.8; stroke-linecap: square"/>
     </g>
     <g id="line2d_38">
      <g>
       <use xlink:href="#m76db718421" x="417.292016" y="150.84327" style="stroke: #000000; stroke-width: 0.8"/>
      </g>
     </g>
     <g id="text_16">
      <!-- 10000 -->
      <g transform="translate(401.385766 165.441708) scale(0.1 -0.1)">
       <use xlink:href="#DejaVuSans-31"/>
       <use xlink:href="#DejaVuSans-30" x="63.623047"/>
       <use xlink:href="#DejaVuSans-30" x="127.246094"/>
       <use xlink:href="#DejaVuSans-30" x="190.869141"/>
       <use xlink:href="#DejaVuSans-30" x="254.492188"/>
      </g>
     </g>
    </g>
    <g id="text_17">
     <!-- Epochs -->
     <g transform="translate(329.896761 179.119833) scale(0.1 -0.1)">
      <use xlink:href="#DejaVuSans-45"/>
      <use xlink:href="#DejaVuSans-70" x="63.183594"/>
      <use xlink:href="#DejaVuSans-6f" x="126.660156"/>
      <use xlink:href="#DejaVuSans-63" x="187.841797"/>
      <use xlink:href="#DejaVuSans-68" x="242.822266"/>
      <use xlink:href="#DejaVuSans-73" x="306.201172"/>
     </g>
    </g>
   </g>
   <g id="matplotlib.axis_4">
    <g id="ytick_14">
     <g id="line2d_39">
      <g>
       <use xlink:href="#m4644e27c13" x="271.400077" y="104.737444" style="stroke: #000000; stroke-width: 0.6"/>
      </g>
     </g>
     <g id="text_18">
      <!-- $\mathdefault{5\times10^{-1}}$ -->
      <g transform="translate(223.900077 108.536663) scale(0.1 -0.1)">
       <defs>
        <path id="DejaVuSans-d7" d="M 4488 3438 
L 3059 2003 
L 4488 575 
L 4116 197 
L 2681 1631 
L 1247 197 
L 878 575 
L 2303 2003 
L 878 3438 
L 1247 3816 
L 2681 2381 
L 4116 3816 
L 4488 3438 
z
" transform="scale(0.015625)"/>
        <path id="DejaVuSans-2212" d="M 678 2272 
L 4684 2272 
L 4684 1741 
L 678 1741 
L 678 2272 
z
" transform="scale(0.015625)"/>
       </defs>
       <use xlink:href="#DejaVuSans-35" transform="translate(0 0.684375)"/>
       <use xlink:href="#DejaVuSans-d7" transform="translate(83.105469 0.684375)"/>
       <use xlink:href="#DejaVuSans-31" transform="translate(186.376953 0.684375)"/>
       <use xlink:href="#DejaVuSans-30" transform="translate(250 0.684375)"/>
       <use xlink:href="#DejaVuSans-2212" transform="translate(314.580078 38.965625) scale(0.7)"/>
       <use xlink:href="#DejaVuSans-31" transform="translate(373.232422 38.965625) scale(0.7)"/>
      </g>
     </g>
    </g>
    <g id="ytick_15">
     <g id="line2d_40">
      <g>
       <use xlink:href="#m4644e27c13" x="271.400077" y="39.717056" style="stroke: #000000; stroke-width: 0.6"/>
      </g>
     </g>
     <g id="text_19">
      <!-- $\mathdefault{6\times10^{-1}}$ -->
      <g transform="translate(223.900077 43.516275) scale(0.1 -0.1)">
       <defs>
        <path id="DejaVuSans-36" d="M 2113 2584 
Q 1688 2584 1439 2293 
Q 1191 2003 1191 1497 
Q 1191 994 1439 701 
Q 1688 409 2113 409 
Q 2538 409 2786 701 
Q 3034 994 3034 1497 
Q 3034 2003 2786 2293 
Q 2538 2584 2113 2584 
z
M 3366 4563 
L 3366 3988 
Q 3128 4100 2886 4159 
Q 2644 4219 2406 4219 
Q 1781 4219 1451 3797 
Q 1122 3375 1075 2522 
Q 1259 2794 1537 2939 
Q 1816 3084 2150 3084 
Q 2853 3084 3261 2657 
Q 3669 2231 3669 1497 
Q 3669 778 3244 343 
Q 2819 -91 2113 -91 
Q 1303 -91 875 529 
Q 447 1150 447 2328 
Q 447 3434 972 4092 
Q 1497 4750 2381 4750 
Q 2619 4750 2861 4703 
Q 3103 4656 3366 4563 
z
" transform="scale(0.015625)"/>
       </defs>
       <use xlink:href="#DejaVuSans-36" transform="translate(0 0.684375)"/>
       <use xlink:href="#DejaVuSans-d7" transform="translate(83.105469 0.684375)"/>
       <use xlink:href="#DejaVuSans-31" transform="translate(186.376953 0.684375)"/>
       <use xlink:href="#DejaVuSans-30" transform="translate(250 0.684375)"/>
       <use xlink:href="#DejaVuSans-2212" transform="translate(314.580078 38.965625) scale(0.7)"/>
       <use xlink:href="#DejaVuSans-31" transform="translate(373.232422 38.965625) scale(0.7)"/>
      </g>
     </g>
    </g>
    <g id="text_20">
     <!-- Prediction error [MSE] -->
     <g transform="translate(217.820389 141.247104) rotate(-90) scale(0.1 -0.1)">
      <defs>
       <path id="DejaVuSans-50" d="M 1259 4147 
L 1259 2394 
L 2053 2394 
Q 2494 2394 2734 2622 
Q 2975 2850 2975 3272 
Q 2975 3691 2734 3919 
Q 2494 4147 2053 4147 
L 1259 4147 
z
M 628 4666 
L 2053 4666 
Q 2838 4666 3239 4311 
Q 3641 3956 3641 3272 
Q 3641 2581 3239 2228 
Q 2838 1875 2053 1875 
L 1259 1875 
L 1259 0 
L 628 0 
L 628 4666 
z
" transform="scale(0.015625)"/>
      </defs>
      <use xlink:href="#DejaVuSans-50"/>
      <use xlink:href="#DejaVuSans-72" x="58.552734"/>
      <use xlink:href="#DejaVuSans-65" x="97.416016"/>
      <use xlink:href="#DejaVuSans-64" x="158.939453"/>
      <use xlink:href="#DejaVuSans-69" x="222.416016"/>
      <use xlink:href="#DejaVuSans-63" x="250.199219"/>
      <use xlink:href="#DejaVuSans-74" x="305.179688"/>
      <use xlink:href="#DejaVuSans-69" x="344.388672"/>
      <use xlink:href="#DejaVuSans-6f" x="372.171875"/>
      <use xlink:href="#DejaVuSans-6e" x="433.353516"/>
      <use xlink:href="#DejaVuSans-20" x="496.732422"/>
      <use xlink:href="#DejaVuSans-65" x="528.519531"/>
      <use xlink:href="#DejaVuSans-72" x="590.042969"/>
      <use xlink:href="#DejaVuSans-72" x="629.40625"/>
      <use xlink:href="#DejaVuSans-6f" x="668.269531"/>
      <use xlink:href="#DejaVuSans-72" x="729.451172"/>
      <use xlink:href="#DejaVuSans-20" x="770.564453"/>
      <use xlink:href="#DejaVuSans-5b" x="802.351562"/>
      <use xlink:href="#DejaVuSans-4d" x="841.365234"/>
      <use xlink:href="#DejaVuSans-53" x="927.644531"/>
      <use xlink:href="#DejaVuSans-45" x="991.121094"/>
      <use xlink:href="#DejaVuSans-5d" x="1054.304688"/>
     </g>
    </g>
   </g>
   <g id="line2d_41">
    <path d="M 278.34665 28.160177 
L 280.653143 35.21406 
L 283.029109 41.754618 
L 285.418969 47.677827 
L 287.961669 53.363451 
L 290.587737 58.698075 
L 293.19991 63.522137 
L 296.242813 68.665507 
L 299.382979 73.501198 
L 302.495355 77.884646 
L 305.968989 82.371033 
L 309.414834 86.453613 
L 312.874574 90.208626 
L 316.681677 94.019027 
L 321.364135 98.342879 
L 325.838176 102.135134 
L 330.65958 105.87369 
L 335.328145 109.196504 
L 340.441334 112.578837 
L 345.679574 115.805839 
L 351.237389 118.992081 
L 357.726137 122.419877 
L 363.728577 125.354178 
L 370.68974 128.526103 
L 378.456786 131.809181 
L 385.598578 134.612736 
L 393.976983 137.657876 
L 402.63328 140.561181 
L 412.401139 143.583802 
L 417.278121 145.001218 
L 417.278121 145.001218 
" clip-path="url(#paef4ccddcb)" style="fill: none; stroke: #d62728; stroke-width: 1.5; stroke-linecap: square"/>
   </g>
   <g id="line2d_42">
    <path d="M 278.34665 74.364429 
L 280.375253 77.133439 
L 282.556695 79.733822 
L 284.65477 81.908003 
L 287.100208 84.125733 
L 289.74017 86.221698 
L 292.324554 87.998455 
L 295.714821 90.034589 
L 299.355189 91.938344 
L 303.09282 93.646696 
L 307.664122 95.519296 
L 312.277108 97.174791 
L 317.584821 98.854357 
L 323.781785 100.603472 
L 330.214955 102.200767 
L 338.093157 103.905967 
L 345.082109 105.222102 
L 356.489524 107.031816 
L 365.409816 108.224474 
L 376.775547 109.499776 
L 390.030935 110.723988 
L 402.60549 111.688472 
L 417.278121 112.620038 
L 417.278121 112.620038 
" clip-path="url(#paef4ccddcb)" style="fill: none; stroke: #9467bd; stroke-width: 1.5; stroke-linecap: square"/>
   </g>
   <g id="patch_9">
    <path d="M 271.400077 150.84327 
L 271.400077 22.318125 
" style="fill: none; stroke: #000000; stroke-width: 0.8; stroke-linejoin: miter; stroke-linecap: square"/>
   </g>
   <g id="patch_10">
    <path d="M 424.224695 150.84327 
L 424.224695 22.318125 
" style="fill: none; stroke: #000000; stroke-width: 0.8; stroke-linejoin: miter; stroke-linecap: square"/>
   </g>
   <g id="patch_11">
    <path d="M 271.400077 150.84327 
L 424.224695 150.84327 
" style="fill: none; stroke: #000000; stroke-width: 0.8; stroke-linejoin: miter; stroke-linecap: square"/>
   </g>
   <g id="patch_12">
    <path d="M 271.400077 22.318125 
L 424.224695 22.318125 
" style="fill: none; stroke: #000000; stroke-width: 0.8; stroke-linejoin: miter; stroke-linecap: square"/>
   </g>
   <g id="text_21">
    <!-- Tuning training loss -->
    <g transform="translate(289.525198 16.318125) scale(0.12 -0.12)">
     <use xlink:href="#DejaVuSans-54"/>
     <use xlink:href="#DejaVuSans-75" x="45.958984"/>
     <use xlink:href="#DejaVuSans-6e" x="109.337891"/>
     <use xlink:href="#DejaVuSans-69" x="172.716797"/>
     <use xlink:href="#DejaVuSans-6e" x="200.5"/>
     <use xlink:href="#DejaVuSans-67" x="263.878906"/>
     <use xlink:href="#DejaVuSans-20" x="327.355469"/>
     <use xlink:href="#DejaVuSans-74" x="359.142578"/>
     <use xlink:href="#DejaVuSans-72" x="398.351562"/>
     <use xlink:href="#DejaVuSans-61" x="439.464844"/>
     <use xlink:href="#DejaVuSans-69" x="500.744141"/>
     <use xlink:href="#DejaVuSans-6e" x="528.527344"/>
     <use xlink:href="#DejaVuSans-69" x="591.90625"/>
     <use xlink:href="#DejaVuSans-6e" x="619.689453"/>
     <use xlink:href="#DejaVuSans-67" x="683.068359"/>
     <use xlink:href="#DejaVuSans-20" x="746.544922"/>
     <use xlink:href="#DejaVuSans-6c" x="778.332031"/>
     <use xlink:href="#DejaVuSans-6f" x="806.115234"/>
     <use xlink:href="#DejaVuSans-73" x="867.296875"/>
     <use xlink:href="#DejaVuSans-73" x="919.396484"/>
    </g>
   </g>
   <g id="legend_2">
    <g id="patch_13">
     <path d="M 294.857507 59.674375 
L 417.224695 59.674375 
Q 419.224695 59.674375 419.224695 57.674375 
L 419.224695 29.318125 
Q 419.224695 27.318125 417.224695 27.318125 
L 294.857507 27.318125 
Q 292.857507 27.318125 292.857507 29.318125 
L 292.857507 57.674375 
Q 292.857507 59.674375 294.857507 59.674375 
z
" style="fill: #ffffff; opacity: 0.8; stroke: #cccccc; stroke-linejoin: miter"/>
    </g>
    <g id="line2d_43">
     <path d="M 296.857507 35.416563 
L 306.857507 35.416563 
L 316.857507 35.416563 
" style="fill: none; stroke: #d62728; stroke-width: 1.5; stroke-linecap: square"/>
    </g>
    <g id="text_22">
     <!-- Validation dataset -->
     <g transform="translate(324.857507 38.916563) scale(0.1 -0.1)">
      <use xlink:href="#DejaVuSans-56"/>
      <use xlink:href="#DejaVuSans-61" x="60.658203"/>
      <use xlink:href="#DejaVuSans-6c" x="121.9375"/>
      <use xlink:href="#DejaVuSans-69" x="149.720703"/>
      <use xlink:href="#DejaVuSans-64" x="177.503906"/>
      <use xlink:href="#DejaVuSans-61" x="240.980469"/>
      <use xlink:href="#DejaVuSans-74" x="302.259766"/>
      <use xlink:href="#DejaVuSans-69" x="341.46875"/>
      <use xlink:href="#DejaVuSans-6f" x="369.251953"/>
      <use xlink:href="#DejaVuSans-6e" x="430.433594"/>
      <use xlink:href="#DejaVuSans-20" x="493.8125"/>
      <use xlink:href="#DejaVuSans-64" x="525.599609"/>
      <use xlink:href="#DejaVuSans-61" x="589.076172"/>
      <use xlink:href="#DejaVuSans-74" x="650.355469"/>
      <use xlink:href="#DejaVuSans-61" x="689.564453"/>
      <use xlink:href="#DejaVuSans-73" x="750.84375"/>
      <use xlink:href="#DejaVuSans-65" x="802.943359"/>
      <use xlink:href="#DejaVuSans-74" x="864.466797"/>
     </g>
    </g>
    <g id="line2d_44">
     <path d="M 296.857507 50.094688 
L 306.857507 50.094688 
L 316.857507 50.094688 
" style="fill: none; stroke: #9467bd; stroke-width: 1.5; stroke-linecap: square"/>
    </g>
    <g id="text_23">
     <!-- Test dataset -->
     <g transform="translate(324.857507 53.594688) scale(0.1 -0.1)">
      <use xlink:href="#DejaVuSans-54"/>
      <use xlink:href="#DejaVuSans-65" x="44.083984"/>
      <use xlink:href="#DejaVuSans-73" x="105.607422"/>
      <use xlink:href="#DejaVuSans-74" x="157.707031"/>
      <use xlink:href="#DejaVuSans-20" x="196.916016"/>
      <use xlink:href="#DejaVuSans-64" x="228.703125"/>
      <use xlink:href="#DejaVuSans-61" x="292.179688"/>
      <use xlink:href="#DejaVuSans-74" x="353.458984"/>
      <use xlink:href="#DejaVuSans-61" x="392.667969"/>
      <use xlink:href="#DejaVuSans-73" x="453.947266"/>
      <use xlink:href="#DejaVuSans-65" x="506.046875"/>
      <use xlink:href="#DejaVuSans-74" x="567.570312"/>
     </g>
    </g>
   </g>
  </g>
 </g>
 <defs>
  <clipPath id="p5aef097b39">
   <rect x="45.478125" y="22.318125" width="152.824618" height="128.525145"/>
  </clipPath>
  <clipPath id="paef4ccddcb">
   <rect x="271.400077" y="22.318125" width="152.824618" height="128.525145"/>
  </clipPath>
 </defs>
</svg>
